AnekLatin-Thin.ufo
<glyph name="colon" format="2">
  <advance width="334"/>
  <unicode hex="003A"/>
  <outline>
    <contour>
      <point x="168" y="-12" type="curve" smooth="yes"/>
      <point x="198" y="-12"/>
      <point x="213" y="7"/>
      <point x="213" y="45" type="curve" smooth="yes"/>
      <point x="213" y="55" type="line" smooth="yes"/>
      <point x="213" y="92"/>
      <point x="198" y="110"/>
      <point x="168" y="110" type="curve" smooth="yes"/>
      <point x="140" y="110"/>
      <point x="125" y="92"/>
      <point x="125" y="55" type="curve" smooth="yes"/>
      <point x="125" y="45" type="line" smooth="yes"/>
      <point x="125" y="7"/>
      <point x="140" y="-12"/>
    </contour>
    <contour>
      <point x="168" y="769" type="curve" smooth="yes"/>
      <point x="198" y="769"/>
      <point x="213" y="788"/>
      <point x="213" y="826" type="curve" smooth="yes"/>
      <point x="213" y="836" type="line" smooth="yes"/>
      <point x="213" y="873"/>
      <point x="198" y="891"/>
      <point x="168" y="891" type="curve" smooth="yes"/>
      <point x="140" y="891"/>
      <point x="125" y="873"/>
      <point x="125" y="836" type="curve" smooth="yes"/>
      <point x="125" y="826" type="line" smooth="yes"/>
      <point x="125" y="788"/>
      <point x="140" y="769"/>
    </contour>
  </outline>
</glyph>
<glyph name="semicolon" format="2">
  <advance width="334"/>
  <unicode hex="003B"/>
  <outline>
    <contour>
      <point x="190" y="223" type="curve"/>
      <point x="152" y="223" type="line"/>
      <point x="158" y="188"/>
      <point x="161" y="150"/>
      <point x="161" y="111" type="curve" smooth="yes"/>
      <point x="161" y="-33"/>
      <point x="128" y="-147"/>
      <point x="48" y="-257" type="curve"/>
      <point x="71" y="-279" type="line"/>
      <point x="165" y="-159"/>
      <point x="199" y="-37"/>
      <point x="199" y="112" type="curve" smooth="yes"/>
      <point x="199" y="160"/>
      <point x="193" y="204"/>
    </contour>
    <contour>
      <point x="168" y="769" type="curve" smooth="yes"/>
      <point x="198" y="769"/>
      <point x="213" y="788"/>
      <point x="213" y="826" type="curve" smooth="yes"/>
      <point x="213" y="836" type="line" smooth="yes"/>
      <point x="213" y="873"/>
      <point x="198" y="891"/>
      <point x="168" y="891" type="curve" smooth="yes"/>
      <point x="140" y="891"/>
      <point x="125" y="873"/>
      <point x="125" y="836" type="curve" smooth="yes"/>
      <point x="125" y="826" type="line" smooth="yes"/>
      <point x="125" y="788"/>
      <point x="140" y="769"/>
    </contour>
  </outline>
</glyph>
<glyph name="cent" format="2">
  <advance width="852"/>
  <unicode hex="00A2"/>
  <anchor x="467" y="0" name="bottom"/>
  <anchor x="467" y="971" name="top"/>
  <outline>
    <contour>
      <point x="492" y="971" type="line"/>
      <point x="492" y="1195" type="line"/>
      <point x="457" y="1195" type="line"/>
      <point x="457" y="971" type="line"/>
    </contour>
    <contour>
      <point x="492" y="-228" type="line"/>
      <point x="492" y="-7" type="line"/>
      <point x="457" y="-7" type="line"/>
      <point x="457" y="-228" type="line"/>
    </contour>
    <component base="c"/>
  </outline>
</glyph>
<glyph name="guillemetright" format="2">
  <advance width="958"/>
  <unicode hex="00BB"/>
  <outline>
    <contour>
      <point x="491" y="101" type="line"/>
      <point x="537" y="101" type="line"/>
      <point x="851" y="465" type="line"/>
      <point x="851" y="503" type="line"/>
      <point x="537" y="867" type="line"/>
      <point x="491" y="867" type="line"/>
      <point x="819" y="484" type="line"/>
    </contour>
    <contour>
      <point x="83" y="101" type="line"/>
      <point x="129" y="101" type="line"/>
      <point x="443" y="465" type="line"/>
      <point x="443" y="503" type="line"/>
      <point x="129" y="867" type="line"/>
      <point x="83" y="867" type="line"/>
      <point x="411" y="484" type="line"/>
    </contour>
  </outline>
</glyph>
<glyph name="dcroat" format="2">
  <advance width="1029"/>
  <unicode hex="0111"/>
  <anchor x="509" y="0" name="bottom"/>
  <anchor x="509" y="486" name="center"/>
  <anchor x="509" y="1329" name="top"/>
  <anchor x="1065" y="1329" name="topright"/>
  <outline>
    <contour>
      <point x="450" y="1135" type="line"/>
      <point x="1020" y="1135" type="line"/>
      <point x="1020" y="1166" type="line"/>
      <point x="450" y="1166" type="line"/>
    </contour>
    <component base="d"/>
  </outline>
</glyph>
<glyph name="eogonek" format="2">
  <advance width="950"/>
  <unicode hex="0119"/>
  <anchor x="489" y="0" name="bottom"/>
  <anchor x="713" y="5" name="ogonek"/>
  <anchor x="482" y="971" name="top"/>
  <outline>
    <contour>
      <point x="700" y="-365" type="curve" smooth="yes"/>
      <point x="740" y="-365"/>
      <point x="786" y="-355"/>
      <point x="810" y="-341" type="curve"/>
      <point x="817" y="-306" type="line"/>
      <point x="779" y="-325"/>
      <point x="744" y="-331"/>
      <point x="706" y="-331" type="curve" smooth="yes"/>
      <point x="625" y="-331"/>
      <point x="572" y="-293"/>
      <point x="572" y="-212" type="curve" smooth="yes"/>
      <point x="572" y="-211" type="line" smooth="yes"/>
      <point x="572" y="-119"/>
      <point x="634" y="-42"/>
      <point x="726" y="27" type="curve"/>
      <point x="726" y="34" type="line"/>
      <point x="683" y="22" type="line"/>
      <point x="683" y="22" type="line"/>
      <point x="602" y="-37"/>
      <point x="536" y="-115"/>
      <point x="536" y="-215" type="curve" smooth="yes"/>
      <point x="536" y="-216" type="line" smooth="yes"/>
      <point x="536" y="-308"/>
      <point x="596" y="-365"/>
    </contour>
    <component base="e"/>
  </outline>
</glyph>
<glyph name="Hbar" format="2">
  <advance width="1189"/>
  <unicode hex="0126"/>
  <anchor x="595" y="0" name="bottom"/>
  <anchor x="595" y="639" name="center"/>
  <anchor x="595" y="1278" name="top"/>
  <anchor x="26" y="1278" name="topleft"/>
  <outline>
    <contour>
      <point x="33" y="964" type="line"/>
      <point x="1157" y="964" type="line"/>
      <point x="1157" y="997" type="line"/>
      <point x="33" y="997" type="line"/>
    </contour>
    <component base="H"/>
  </outline>
</glyph>
<glyph name="hbar" format="2">
  <advance width="1016"/>
  <unicode hex="0127"/>
  <anchor x="509" y="0" name="bottom"/>
  <anchor x="509" y="657" name="center"/>
  <anchor x="181" y="1329" name="top"/>
  <outline>
    <contour>
      <point x="9" y="1135" type="line"/>
      <point x="566" y="1135" type="line"/>
      <point x="566" y="1166" type="line"/>
      <point x="9" y="1166" type="line"/>
    </contour>
    <component base="h"/>
  </outline>
</glyph>
<glyph name="kgreenlandic" format="2">
  <advance width="907"/>
  <unicode hex="0138"/>
  <anchor x="459" y="0" name="bottom"/>
  <anchor x="459" y="971" name="top"/>
  <outline>
    <contour>
      <point x="797" y="0" type="line"/>
      <point x="850" y="0" type="line"/>
      <point x="347" y="510" type="line"/>
      <point x="347" y="486" type="line"/>
      <point x="828" y="971" type="line"/>
      <point x="774" y="971" type="line"/>
      <point x="323" y="514" type="line"/>
      <point x="187" y="514" type="line"/>
      <point x="187" y="480" type="line"/>
      <point x="323" y="480" type="line"/>
    </contour>
    <contour>
      <point x="162" y="0" type="line"/>
      <point x="200" y="0" type="line"/>
      <point x="200" y="971" type="line"/>
      <point x="162" y="971" type="line"/>
    </contour>
  </outline>
</glyph>
<glyph name="Lslash" format="2">
  <advance width="972"/>
  <unicode hex="0141"/>
  <anchor x="545" y="0" name="bottom"/>
  <anchor x="492" y="653" name="center"/>
  <anchor x="221" y="1278" name="top"/>
  <anchor x="697" y="1278" name="topright"/>
  <outline>
    <contour>
      <point x="657" y="914" type="line"/>
      <point x="33" y="671" type="line"/>
      <point x="33" y="636" type="line"/>
      <point x="657" y="879" type="line"/>
    </contour>
    <component base="L" xOffset="16"/>
  </outline>
</glyph>
<glyph name="lslash" format="2">
  <advance width="422"/>
  <unicode hex="0142"/>
  <anchor x="213" y="0" name="bottom"/>
  <anchor x="213" y="657" name="center"/>
  <anchor x="213" y="1329" name="top"/>
  <anchor x="430" y="1329" name="topright"/>
  <outline>
    <contour>
      <point x="0" y="605" type="line"/>
      <point x="422" y="924" type="line"/>
      <point x="422" y="966" type="line"/>
      <point x="0" y="647" type="line"/>
    </contour>
    <component base="l" xOffset="26"/>
  </outline>
</glyph>
<glyph name="Eng" format="2">
  <advance width="1189"/>
  <unicode hex="014A"/>
  <outline>
    <contour>
      <point x="185" y="0" type="line"/>
      <point x="224" y="0" type="line"/>
      <point x="224" y="626" type="line"/>
      <point x="222" y="1246" type="line"/>
      <point x="236" y="1246" type="line"/>
      <point x="929" y="0" type="line"/>
      <point x="989" y="0" type="line"/>
      <point x="1004" y="0" type="line"/>
      <point x="1004" y="1278" type="line"/>
      <point x="965" y="1278" type="line"/>
      <point x="965" y="611" type="line"/>
      <point x="967" y="33" type="line"/>
      <point x="953" y="33" type="line"/>
      <point x="260" y="1278" type="line"/>
      <point x="185" y="1278" type="line"/>
    </contour>
    <contour>
      <point x="766" y="-354" type="curve" smooth="yes"/>
      <point x="939" y="-354"/>
      <point x="1004" y="-263"/>
      <point x="1004" y="-92" type="curve" smooth="yes"/>
      <point x="1004" y="26" type="line"/>
      <point x="967" y="26" type="line"/>
      <point x="967" y="-91" type="line" smooth="yes"/>
      <point x="967" y="-242"/>
      <point x="916" y="-319"/>
      <point x="770" y="-319" type="curve" smooth="yes"/>
      <point x="711" y="-319"/>
      <point x="658" y="-307"/>
      <point x="608" y="-283" type="curve"/>
      <point x="614" y="-323" type="line"/>
      <point x="651" y="-340"/>
      <point x="707" y="-354"/>
    </contour>
  </outline>
</glyph>
<glyph name="eng" format="2">
  <advance width="1016"/>
  <unicode hex="014B"/>
  <outline>
    <contour>
      <point x="832" y="0" type="line"/>
      <point x="869" y="0" type="line"/>
      <point x="869" y="622" type="line" smooth="yes"/>
      <point x="869" y="850"/>
      <point x="783" y="990"/>
      <point x="542" y="990" type="curve" smooth="yes"/>
      <point x="327" y="990"/>
      <point x="203" y="851"/>
      <point x="185" y="688" type="curve"/>
      <point x="174" y="688" type="line"/>
      <point x="192" y="650" type="line"/>
      <point x="219" y="828"/>
      <point x="341" y="957"/>
      <point x="540" y="957" type="curve" smooth="yes"/>
      <point x="754" y="957"/>
      <point x="832" y="831"/>
      <point x="832" y="620" type="curve" smooth="yes"/>
    </contour>
    <contour>
      <point x="162" y="0" type="line"/>
      <point x="199" y="0" type="line"/>
      <point x="199" y="717" type="line"/>
      <point x="195" y="717" type="line"/>
      <point x="199" y="971" type="line"/>
      <point x="162" y="971" type="line"/>
    </contour>
    <component base="jbottom" xOffset="627"/>
  </outline>
</glyph>
<glyph name="tcaron" format="2">
  <advance width="791"/>
  <unicode hex="0165"/>
  <anchor x="455" y="0" name="bottom"/>
  <anchor x="396" y="486" name="center"/>
  <anchor x="225" y="1223" name="top"/>
  <anchor x="619" y="1402" name="topright"/>
  <outline>
    <contour>
      <point x="654" y="1402" type="curve"/>
      <point x="620" y="1402" type="line"/>
      <point x="625" y="1374"/>
      <point x="628" y="1345"/>
      <point x="628" y="1315" type="curve" smooth="yes"/>
      <point x="628" y="1215"/>
      <point x="601" y="1136"/>
      <point x="535" y="1062" type="curve"/>
      <point x="557" y="1047" type="line"/>
      <point x="634" y="1127"/>
      <point x="662" y="1212"/>
      <point x="662" y="1316" type="curve" smooth="yes"/>
      <point x="662" y="1353"/>
      <point x="656" y="1383"/>
    </contour>
    <component base="t"/>
  </outline>
</glyph>
<glyph name="Tbar" format="2">
  <advance width="1009"/>
  <unicode hex="0166"/>
  <anchor x="505" y="0" name="bottom"/>
  <anchor x="505" y="639" name="center"/>
  <anchor x="505" y="1278" name="top"/>
  <outline>
    <contour>
      <point x="175" y="642" type="line"/>
      <point x="839" y="642" type="line"/>
      <point x="839" y="676" type="line"/>
      <point x="175" y="676" type="line"/>
    </contour>
    <component base="T"/>
  </outline>
</glyph>
<glyph name="Uogonek" format="2">
  <advance width="1170"/>
  <unicode hex="0172"/>
  <anchor x="585" y="0" name="bottom"/>
  <anchor x="779" y="5" name="ogonek"/>
  <anchor x="585" y="1278" name="top"/>
  <anchor x="1129" y="1278" name="topright"/>
  <outline>
    <contour>
      <point x="691" y="-365" type="curve" smooth="yes"/>
      <point x="729" y="-365"/>
      <point x="774" y="-355"/>
      <point x="797" y="-341" type="curve"/>
      <point x="804" y="-306" type="line"/>
      <point x="767" y="-325"/>
      <point x="733" y="-331"/>
      <point x="696" y="-331" type="curve" smooth="yes"/>
      <point x="622" y="-331"/>
      <point x="573" y="-297"/>
      <point x="573" y="-221" type="curve" smooth="yes"/>
      <point x="573" y="-220" type="line" smooth="yes"/>
      <point x="573" y="-135"/>
      <point x="633" y="-64"/>
      <point x="721" y="0" type="curve"/>
      <point x="721" y="7" type="line"/>
      <point x="680" y="0" type="line"/>
      <point x="680" y="0" type="line"/>
      <point x="600" y="-58"/>
      <point x="537" y="-130"/>
      <point x="537" y="-224" type="curve" smooth="yes"/>
      <point x="537" y="-225" type="line" smooth="yes"/>
      <point x="537" y="-313"/>
      <point x="594" y="-365"/>
    </contour>
    <component base="U"/>
  </outline>
</glyph>
<glyph name="Schwa" format="2">
  <advance width="1110"/>
  <unicode hex="018F"/>
  <anchor x="547" y="0" name="bottom"/>
  <anchor x="547" y="1278" name="top"/>
  <outline>
    <contour>
      <point x="546" y="-18" type="curve" smooth="yes"/>
      <point x="828" y="-18"/>
      <point x="983" y="156"/>
      <point x="983" y="465" type="curve" smooth="yes"/>
      <point x="983" y="814" type="line" smooth="yes"/>
      <point x="983" y="1120"/>
      <point x="836" y="1295"/>
      <point x="539" y="1295" type="curve" smooth="yes"/>
      <point x="353" y="1295"/>
      <point x="214" y="1226"/>
      <point x="138" y="1169" type="curve"/>
      <point x="133" y="1126" type="line"/>
      <point x="227" y="1194"/>
      <point x="365" y="1259"/>
      <point x="539" y="1259" type="curve" smooth="yes"/>
      <point x="811" y="1259"/>
      <point x="944" y="1098"/>
      <point x="944" y="814" type="curve" smooth="yes"/>
      <point x="944" y="465" type="line" smooth="yes"/>
      <point x="944" y="180"/>
      <point x="807" y="18"/>
      <point x="546" y="18" type="curve" smooth="yes"/>
      <point x="286" y="18"/>
      <point x="149" y="180"/>
      <point x="149" y="465" type="curve"/>
      <point x="149" y="655" type="line"/>
      <point x="131" y="641" type="line"/>
      <point x="958" y="641" type="line"/>
      <point x="958" y="675" type="line"/>
      <point x="113" y="675" type="line"/>
      <point x="110" y="624"/>
      <point x="110" y="585"/>
      <point x="110" y="542" type="curve" smooth="yes"/>
      <point x="110" y="465" type="line" smooth="yes"/>
      <point x="110" y="156"/>
      <point x="264" y="-18"/>
    </contour>
  </outline>
</glyph>
<glyph name="florin" format="2">
  <advance width="811"/>
  <unicode hex="0192"/>
  <outline>
    <contour>
      <point x="61" y="910" type="line"/>
      <point x="699" y="910" type="line"/>
      <point x="701" y="942" type="line"/>
      <point x="63" y="942" type="line"/>
    </contour>
    <contour>
      <point x="780" y="1262" type="curve"/>
      <point x="778" y="1297" type="line"/>
      <point x="716" y="1324"/>
      <point x="626" y="1350"/>
      <point x="523" y="1350" type="curve" smooth="yes"/>
      <point x="343" y="1350"/>
      <point x="250" y="1278"/>
      <point x="236" y="1082" type="curve" smooth="yes"/>
      <point x="134" y="-344" type="line"/>
      <point x="173" y="-344" type="line"/>
      <point x="274" y="1078" type="line" smooth="yes"/>
      <point x="286" y="1247"/>
      <point x="358" y="1316"/>
      <point x="524" y="1316" type="curve" smooth="yes"/>
      <point x="617" y="1316"/>
      <point x="711" y="1292"/>
    </contour>
  </outline>
</glyph>
<glyph name="Oogonek" format="2">
  <advance width="1171"/>
  <unicode hex="01EA"/>
  <anchor x="567" y="0" name="bottom"/>
  <anchor x="567" y="639" name="center"/>
  <anchor x="759" y="5" name="ogonek"/>
  <anchor x="567" y="1278" name="top"/>
  <anchor x="7" y="1278" name="topleft"/>
  <anchor x="896" y="1278" name="topright"/>
  <outline>
    <contour>
      <point x="677" y="-365" type="curve" smooth="yes"/>
      <point x="715" y="-365"/>
      <point x="760" y="-355"/>
      <point x="783" y="-341" type="curve"/>
      <point x="790" y="-306" type="line"/>
      <point x="753" y="-325"/>
      <point x="719" y="-331"/>
      <point x="682" y="-331" type="curve" smooth="yes"/>
      <point x="608" y="-331"/>
      <point x="559" y="-297"/>
      <point x="559" y="-221" type="curve" smooth="yes"/>
      <point x="559" y="-220" type="line" smooth="yes"/>
      <point x="559" y="-135"/>
      <point x="619" y="-64"/>
      <point x="707" y="0" type="curve"/>
      <point x="707" y="7" type="line"/>
      <point x="666" y="0" type="line"/>
      <point x="666" y="0" type="line"/>
      <point x="586" y="-58"/>
      <point x="523" y="-130"/>
      <point x="523" y="-224" type="curve" smooth="yes"/>
      <point x="523" y="-225" type="line" smooth="yes"/>
      <point x="523" y="-313"/>
      <point x="580" y="-365"/>
    </contour>
    <component base="O"/>
  </outline>
</glyph>
<glyph name="oogonek" format="2">
  <advance width="1007"/>
  <unicode hex="01EB"/>
  <anchor x="499" y="0" name="bottom"/>
  <anchor x="508" y="307" name="center"/>
  <anchor x="691" y="0" name="ogonek"/>
  <anchor x="499" y="971" name="top"/>
  <anchor x="823" y="971" name="topright"/>
  <outline>
    <contour>
      <point x="618" y="-365" type="curve" smooth="yes"/>
      <point x="657" y="-365"/>
      <point x="701" y="-355"/>
      <point x="724" y="-341" type="curve"/>
      <point x="731" y="-306" type="line"/>
      <point x="694" y="-325"/>
      <point x="661" y="-331"/>
      <point x="624" y="-331" type="curve" smooth="yes"/>
      <point x="549" y="-331"/>
      <point x="501" y="-297"/>
      <point x="501" y="-221" type="curve" smooth="yes"/>
      <point x="501" y="-220" type="line" smooth="yes"/>
      <point x="501" y="-135"/>
      <point x="561" y="-64"/>
      <point x="648" y="0" type="curve"/>
      <point x="648" y="7" type="line"/>
      <point x="608" y="0" type="line"/>
      <point x="608" y="0" type="line"/>
      <point x="527" y="-58"/>
      <point x="465" y="-130"/>
      <point x="465" y="-224" type="curve" smooth="yes"/>
      <point x="465" y="-225" type="line" smooth="yes"/>
      <point x="465" y="-313"/>
      <point x="521" y="-365"/>
    </contour>
    <component base="o"/>
  </outline>
</glyph>
<glyph name="odieresismacron" format="2">
  <advance width="998"/>
  <unicode hex="022B"/>
  <anchor x="500" y="1604" name="top"/>
  <anchor x="499" y="0" name="bottom"/>
  <anchor x="508" y="307" name="center"/>
  <anchor x="691" y="0" name="ogonek"/>
  <anchor x="823" y="971" name="topright"/>
  <outline>
    <contour>
      <point x="259" y="1541" type="line"/>
      <point x="739" y="1541" type="line"/>
      <point x="739" y="1573" type="line"/>
      <point x="259" y="1573" type="line"/>
    </contour>
    <component base="o"/>
    <component base="dieresiscomb" xOffset="217"/>
  </outline>
</glyph>
<glyph name="Otildemacron" format="2">
  <advance width="1133"/>
  <unicode hex="022C"/>
  <anchor x="567" y="1883" name="top"/>
  <anchor x="567" y="0" name="bottom"/>
  <anchor x="567" y="639" name="center"/>
  <anchor x="759" y="5" name="ogonek"/>
  <anchor x="7" y="1278" name="topleft"/>
  <anchor x="896" y="1278" name="topright"/>
  <outline>
    <contour>
      <point x="326" y="1816" type="line"/>
      <point x="806" y="1816" type="line"/>
      <point x="806" y="1848" type="line"/>
      <point x="326" y="1848" type="line"/>
    </contour>
    <component base="O"/>
    <component base="tildecomb.case" xOffset="216"/>
  </outline>
</glyph>
<glyph name="otildemacron" format="2">
  <advance width="998"/>
  <unicode hex="022D"/>
  <anchor x="500" y="1594" name="top"/>
  <anchor x="499" y="0" name="bottom"/>
  <anchor x="508" y="307" name="center"/>
  <anchor x="691" y="0" name="ogonek"/>
  <anchor x="823" y="971" name="topright"/>
  <outline>
    <contour>
      <point x="259" y="1531" type="line"/>
      <point x="739" y="1531" type="line"/>
      <point x="739" y="1563" type="line"/>
      <point x="259" y="1563" type="line"/>
    </contour>
    <component base="o"/>
    <component base="tildecomb" xOffset="160"/>
  </outline>
</glyph>
<glyph name="Odotaccentmacron" format="2">
  <advance width="1133"/>
  <unicode hex="0230"/>
  <anchor x="567" y="0" name="bottom"/>
  <anchor x="567" y="639" name="center"/>
  <anchor x="759" y="5" name="ogonek"/>
  <anchor x="567" y="1570" name="top"/>
  <anchor x="7" y="1278" name="topleft"/>
  <anchor x="896" y="1278" name="topright"/>
  <outline>
    <contour>
      <point x="326" y="1804" type="line"/>
      <point x="806" y="1804" type="line"/>
      <point x="806" y="1836" type="line"/>
      <point x="326" y="1836" type="line"/>
    </contour>
    <component base="O"/>
    <component base="dotaccentcomb.case" xOffset="417"/>
  </outline>
</glyph>
<glyph name="odotaccentmacron" format="2">
  <advance width="998"/>
  <unicode hex="0231"/>
  <anchor x="499" y="1604" name="top"/>
  <anchor x="499" y="0" name="bottom"/>
  <anchor x="508" y="307" name="center"/>
  <anchor x="691" y="0" name="ogonek"/>
  <anchor x="823" y="971" name="topright"/>
  <outline>
    <contour>
      <point x="258" y="1541" type="line"/>
      <point x="738" y="1541" type="line"/>
      <point x="738" y="1573" type="line"/>
      <point x="258" y="1573" type="line"/>
    </contour>
    <component base="o"/>
    <component base="dotaccentcomb" xOffset="349"/>
  </outline>
</glyph>
<glyph name="jdotless" format="2">
  <advance width="410"/>
  <unicode hex="0237"/>
  <anchor x="205" y="-344" name="bottom"/>
  <anchor x="205" y="971" name="top"/>
  <outline>
    <contour>
      <point x="205" y="203" type="line"/>
      <point x="243" y="203" type="line"/>
      <point x="243" y="971" type="line"/>
      <point x="205" y="971" type="line"/>
    </contour>
    <component base="jbottom"/>
  </outline>
</glyph>
<glyph name="schwa" format="2">
  <advance width="952"/>
  <unicode hex="0259"/>
  <outline>
    <contour>
      <point x="469" y="-23" type="curve" smooth="yes"/>
      <point x="707" y="-23"/>
      <point x="834" y="120"/>
      <point x="834" y="386" type="curve" smooth="yes"/>
      <point x="834" y="610" type="line" smooth="yes"/>
      <point x="834" y="860"/>
      <point x="708" y="990"/>
      <point x="463" y="990" type="curve" smooth="yes"/>
      <point x="324" y="990"/>
      <point x="216" y="948"/>
      <point x="126" y="883" type="curve"/>
      <point x="121" y="839" type="line"/>
      <point x="225" y="914"/>
      <point x="327" y="955"/>
      <point x="462" y="955" type="curve" smooth="yes"/>
      <point x="683" y="955"/>
      <point x="797" y="836"/>
      <point x="797" y="609" type="curve" smooth="yes"/>
      <point x="797" y="492" type="line"/>
      <point x="797" y="484" type="line"/>
      <point x="797" y="386" type="line" smooth="yes"/>
      <point x="797" y="141"/>
      <point x="683" y="10"/>
      <point x="469" y="10" type="curve" smooth="yes"/>
      <point x="257" y="10"/>
      <point x="142" y="142"/>
      <point x="142" y="379" type="curve" smooth="yes"/>
      <point x="142" y="415"/>
      <point x="142" y="458"/>
      <point x="142" y="505" type="curve"/>
      <point x="108" y="505" type="line"/>
      <point x="105" y="469"/>
      <point x="105" y="442"/>
      <point x="105" y="412" type="curve" smooth="yes"/>
      <point x="105" y="378" type="line" smooth="yes"/>
      <point x="105" y="123"/>
      <point x="235" y="-23"/>
    </contour>
    <contour>
      <point x="121" y="472" type="line"/>
      <point x="817" y="472" type="line"/>
      <point x="817" y="505" type="line"/>
      <point x="121" y="505" type="line"/>
    </contour>
  </outline>
</glyph>
<glyph name="primemod" format="2">
  <advance width="302"/>
  <unicode hex="02B9"/>
  <outline>
    <contour>
      <point x="166" y="907" type="line"/>
      <point x="170" y="1329" type="line"/>
      <point x="132" y="1329" type="line"/>
      <point x="137" y="907" type="line"/>
    </contour>
  </outline>
</glyph>
<glyph name="doubleprimemod" format="2">
  <advance width="578"/>
  <unicode hex="02BA"/>
  <outline>
    <contour>
      <point x="413" y="907" type="line"/>
      <point x="442" y="907" type="line"/>
      <point x="446" y="1329" type="line"/>
      <point x="408" y="1329" type="line"/>
    </contour>
    <contour>
      <point x="137" y="907" type="line"/>
      <point x="166" y="907" type="line"/>
      <point x="170" y="1329" type="line"/>
      <point x="132" y="1329" type="line"/>
    </contour>
  </outline>
</glyph>
<glyph name="apostrophemod" format="2">
  <advance width="338"/>
  <unicode hex="02BC"/>
  <outline>
    <contour>
      <point x="225" y="1278" type="curve"/>
      <point x="191" y="1278" type="line"/>
      <point x="196" y="1244"/>
      <point x="199" y="1210"/>
      <point x="199" y="1174" type="curve" smooth="yes"/>
      <point x="199" y="1053"/>
      <point x="172" y="958"/>
      <point x="106" y="869" type="curve"/>
      <point x="128" y="851" type="line"/>
      <point x="205" y="947"/>
      <point x="233" y="1049"/>
      <point x="233" y="1175" type="curve" smooth="yes"/>
      <point x="233" y="1219"/>
      <point x="227" y="1256"/>
    </contour>
  </outline>
</glyph>
<glyph name="ringhalfright" format="2">
  <advance width="370"/>
  <unicode hex="02BE"/>
  <anchor x="107" y="971" name="_top"/>
  <anchor x="107" y="1357" name="top"/>
  <outline>
    <contour>
      <point x="107" y="1371" type="line"/>
      <point x="183" y="1371"/>
      <point x="226" y="1328"/>
      <point x="226" y="1255" type="curve" smooth="yes"/>
      <point x="226" y="1253" type="line" smooth="yes"/>
      <point x="226" y="1181"/>
      <point x="183" y="1139"/>
      <point x="107" y="1139" type="curve"/>
      <point x="107" y="1108" type="line"/>
      <point x="201" y="1108"/>
      <point x="259" y="1164"/>
      <point x="259" y="1253" type="curve" smooth="yes"/>
      <point x="259" y="1255" type="line" smooth="yes"/>
      <point x="259" y="1346"/>
      <point x="201" y="1401"/>
      <point x="107" y="1401" type="curve"/>
    </contour>
  </outline>
</glyph>
<glyph name="ringhalfleft" format="2">
  <advance width="370"/>
  <unicode hex="02BF"/>
  <anchor x="263" y="971" name="_top"/>
  <anchor x="263" y="1357" name="top"/>
  <outline>
    <contour>
      <point x="263" y="1371" type="curve"/>
      <point x="263" y="1401" type="line"/>
      <point x="169" y="1401"/>
      <point x="111" y="1346"/>
      <point x="111" y="1255" type="curve" smooth="yes"/>
      <point x="111" y="1253" type="line" smooth="yes"/>
      <point x="111" y="1164"/>
      <point x="169" y="1108"/>
      <point x="263" y="1108" type="curve"/>
      <point x="263" y="1139" type="line"/>
      <point x="187" y="1139"/>
      <point x="144" y="1181"/>
      <point x="144" y="1253" type="curve" smooth="yes"/>
      <point x="144" y="1255" type="line" smooth="yes"/>
      <point x="144" y="1328"/>
      <point x="187" y="1371"/>
    </contour>
  </outline>
</glyph>
<glyph name="verticallinemod" format="2">
  <advance width="245"/>
  <unicode hex="02C8"/>
  <anchor x="123" y="971" name="_top"/>
  <anchor x="123" y="1376" name="top"/>
  <outline>
    <contour>
      <point x="106" y="1111" type="line"/>
      <point x="139" y="1111" type="line"/>
      <point x="139" y="1421" type="line"/>
      <point x="106" y="1421" type="line"/>
    </contour>
  </outline>
</glyph>
<glyph name="fourthtonechinese" format="2">
  <advance width="472"/>
  <unicode hex="02CB"/>
  <anchor x="351" y="971" name="_top"/>
  <anchor x="236" y="1300" name="top"/>
  <outline>
    <contour>
      <point x="157" y="1360" type="line"/>
      <point x="109" y="1360" type="line"/>
      <point x="109" y="1358" type="line"/>
      <point x="330" y="1111" type="line"/>
      <point x="369" y="1111" type="line"/>
      <point x="369" y="1112" type="line"/>
    </contour>
  </outline>
</glyph>
<glyph name="brevecomb" format="2">
  <unicode hex="0306"/>
  <anchor x="318" y="971" name="_top"/>
  <anchor x="319" y="1295" name="top"/>
  <outline>
    <contour>
      <point x="318" y="1105" type="curve" smooth="yes"/>
      <point x="458" y="1105"/>
      <point x="526" y="1187"/>
      <point x="530" y="1360" type="curve"/>
      <point x="497" y="1360" type="line"/>
      <point x="494" y="1204"/>
      <point x="433" y="1136"/>
      <point x="318" y="1136" type="curve" smooth="yes"/>
      <point x="204" y="1136"/>
      <point x="143" y="1204"/>
      <point x="140" y="1360" type="curve"/>
      <point x="107" y="1360" type="line"/>
      <point x="111" y="1187"/>
      <point x="179" y="1105"/>
    </contour>
  </outline>
</glyph>
<glyph name="hookabovecomb" format="2">
  <unicode hex="0309"/>
  <anchor x="251" y="971" name="_top"/>
  <anchor x="251" y="1379" name="top"/>
  <outline>
    <contour>
      <point x="226" y="1105" type="curve"/>
      <point x="219" y="1135" type="line"/>
      <point x="335" y="1168"/>
      <point x="394" y="1205"/>
      <point x="394" y="1285" type="curve" smooth="yes"/>
      <point x="394" y="1352"/>
      <point x="353" y="1383"/>
      <point x="275" y="1383" type="curve" smooth="yes"/>
      <point x="229" y="1383"/>
      <point x="181" y="1368"/>
      <point x="140" y="1345" type="curve"/>
      <point x="145" y="1379" type="line"/>
      <point x="178" y="1399"/>
      <point x="228" y="1415"/>
      <point x="279" y="1415" type="curve" smooth="yes"/>
      <point x="375" y="1415"/>
      <point x="429" y="1369"/>
      <point x="429" y="1286" type="curve" smooth="yes"/>
      <point x="429" y="1191"/>
      <point x="361" y="1140"/>
    </contour>
  </outline>
</glyph>
<glyph name="hungarumlautcomb" format="2">
  <unicode hex="030B"/>
  <anchor x="253" y="971" name="_top"/>
  <anchor x="357" y="1295" name="top"/>
  <outline>
    <contour>
      <point x="522" y="1360" type="line"/>
      <point x="358" y="1111" type="line"/>
      <point x="358" y="1111" type="line"/>
      <point x="396" y="1111" type="line"/>
      <point x="568" y="1360" type="line"/>
      <point x="568" y="1360" type="line"/>
    </contour>
    <contour>
      <point x="269" y="1360" type="line"/>
      <point x="105" y="1111" type="line"/>
      <point x="105" y="1111" type="line"/>
      <point x="143" y="1111" type="line"/>
      <point x="315" y="1360" type="line"/>
      <point x="315" y="1360" type="line"/>
    </contour>
  </outline>
</glyph>
<glyph name="caroncomb" format="2">
  <unicode hex="030C"/>
  <anchor x="334" y="971" name="_top"/>
  <anchor x="334" y="1295" name="top"/>
  <outline>
    <contour>
      <point x="309" y="1111" type="line"/>
      <point x="359" y="1111" type="line"/>
      <point x="562" y="1359" type="line"/>
      <point x="562" y="1360" type="line"/>
      <point x="524" y="1360" type="line"/>
      <point x="337" y="1143" type="line"/>
      <point x="331" y="1143" type="line"/>
      <point x="144" y="1360" type="line"/>
      <point x="106" y="1360" type="line"/>
      <point x="106" y="1359" type="line"/>
    </contour>
  </outline>
</glyph>
<glyph name="dblgravecomb" format="2">
  <unicode hex="030F"/>
  <anchor x="427" y="971" name="_top"/>
  <anchor x="316" y="1295" name="top"/>
  <outline>
    <contour>
      <point x="156" y="1360" type="line"/>
      <point x="110" y="1360" type="line"/>
      <point x="110" y="1360" type="line"/>
      <point x="282" y="1111" type="line"/>
      <point x="320" y="1111" type="line"/>
      <point x="320" y="1111" type="line"/>
    </contour>
    <contour>
      <point x="409" y="1360" type="line"/>
      <point x="363" y="1360" type="line"/>
      <point x="363" y="1360" type="line"/>
      <point x="535" y="1111" type="line"/>
      <point x="573" y="1111" type="line"/>
      <point x="573" y="1111" type="line"/>
    </contour>
  </outline>
</glyph>
<glyph name="breveinvertedcomb" format="2">
  <unicode hex="0311"/>
  <anchor x="318" y="971" name="_top"/>
  <anchor x="319" y="1295" name="top"/>
  <outline>
    <contour>
      <point x="318" y="1366" type="curve" smooth="yes"/>
      <point x="179" y="1366"/>
      <point x="111" y="1284"/>
      <point x="107" y="1111" type="curve"/>
      <point x="140" y="1111" type="line"/>
      <point x="143" y="1267"/>
      <point x="204" y="1335"/>
      <point x="318" y="1335" type="curve" smooth="yes"/>
      <point x="433" y="1335"/>
      <point x="494" y="1267"/>
      <point x="497" y="1111" type="curve"/>
      <point x="530" y="1111" type="line"/>
      <point x="526" y="1284"/>
      <point x="458" y="1366"/>
    </contour>
  </outline>
</glyph>
<glyph name="commaturnedabovecomb" format="2">
  <unicode hex="0312"/>
  <anchor x="158" y="971" name="_top"/>
  <anchor x="158" y="1350" name="top"/>
  <outline>
    <contour>
      <point x="127" y="1121" type="curve"/>
      <point x="163" y="1121" type="line"/>
      <point x="161" y="1141"/>
      <point x="159" y="1162"/>
      <point x="159" y="1184" type="curve" smooth="yes"/>
      <point x="159" y="1271"/>
      <point x="179" y="1342"/>
      <point x="227" y="1409" type="curve"/>
      <point x="207" y="1431" type="line"/>
      <point x="145" y="1354"/>
      <point x="124" y="1278"/>
      <point x="124" y="1183" type="curve" smooth="yes"/>
      <point x="124" y="1157"/>
      <point x="126" y="1135"/>
    </contour>
  </outline>
</glyph>
<glyph name="horncomb" format="2">
  <unicode hex="031B"/>
  <anchor x="274" y="971" name="_topright"/>
  <anchor x="352" y="1231" name="topright"/>
  <outline>
    <contour>
      <point x="115" y="944" type="line"/>
      <point x="266" y="964"/>
      <point x="338" y="1023"/>
      <point x="338" y="1125" type="curve" smooth="yes"/>
      <point x="338" y="1171"/>
      <point x="325" y="1204"/>
      <point x="310" y="1239" type="curve"/>
      <point x="274" y="1239" type="line"/>
      <point x="289" y="1203"/>
      <point x="302" y="1166"/>
      <point x="302" y="1124" type="curve" smooth="yes"/>
      <point x="302" y="1029"/>
      <point x="229" y="990"/>
      <point x="105" y="969" type="curve"/>
    </contour>
  </outline>
</glyph>
<glyph name="dotbelowcomb" format="2">
  <unicode hex="0323"/>
  <anchor x="149" y="0" name="_bottom"/>
  <anchor x="149" y="-330" name="bottom"/>
  <outline>
    <contour>
      <point x="149" y="-325" type="curve" smooth="yes"/>
      <point x="178" y="-325"/>
      <point x="193" y="-307"/>
      <point x="193" y="-270" type="curve" smooth="yes"/>
      <point x="193" y="-264" type="line" smooth="yes"/>
      <point x="193" y="-229"/>
      <point x="178" y="-211"/>
      <point x="149" y="-211" type="curve" smooth="yes"/>
      <point x="121" y="-211"/>
      <point x="106" y="-229"/>
      <point x="106" y="-264" type="curve" smooth="yes"/>
      <point x="106" y="-270" type="line" smooth="yes"/>
      <point x="106" y="-307"/>
      <point x="121" y="-325"/>
    </contour>
  </outline>
</glyph>
<glyph name="commaaccentcomb" format="2">
  <unicode hex="0326"/>
  <anchor x="156" y="0" name="_bottom"/>
  <anchor x="158" y="-441" name="bottom"/>
  <outline>
    <contour>
      <point x="179" y="-140" type="curve"/>
      <point x="143" y="-140" type="line"/>
      <point x="145" y="-160"/>
      <point x="147" y="-181"/>
      <point x="147" y="-203" type="curve" smooth="yes"/>
      <point x="147" y="-290"/>
      <point x="127" y="-361"/>
      <point x="79" y="-428" type="curve"/>
      <point x="99" y="-450" type="line"/>
      <point x="161" y="-373"/>
      <point x="182" y="-297"/>
      <point x="182" y="-202" type="curve" smooth="yes"/>
      <point x="182" y="-176"/>
      <point x="180" y="-154"/>
    </contour>
  </outline>
</glyph>
<glyph name="ogonekcomb" format="2">
  <unicode hex="0328"/>
  <anchor x="320" y="0" name="_ogonek"/>
  <outline>
    <contour>
      <point x="241" y="-365" type="curve" smooth="yes"/>
      <point x="272" y="-365"/>
      <point x="311" y="-357"/>
      <point x="331" y="-345" type="curve"/>
      <point x="338" y="-311" type="line"/>
      <point x="306" y="-326"/>
      <point x="277" y="-331"/>
      <point x="246" y="-331" type="curve" smooth="yes"/>
      <point x="177" y="-331"/>
      <point x="130" y="-296"/>
      <point x="130" y="-222" type="curve" smooth="yes"/>
      <point x="130" y="-220" type="line" smooth="yes"/>
      <point x="130" y="-134"/>
      <point x="187" y="-63"/>
      <point x="273" y="0" type="curve"/>
      <point x="273" y="7" type="line"/>
      <point x="239" y="6" type="line"/>
      <point x="239" y="6" type="line"/>
      <point x="156" y="-56"/>
      <point x="94" y="-131"/>
      <point x="94" y="-223" type="curve" smooth="yes"/>
      <point x="94" y="-224" type="line" smooth="yes"/>
      <point x="94" y="-315"/>
      <point x="149" y="-365"/>
    </contour>
  </outline>
</glyph>
<glyph name="strokeshortcomb" format="2">
  <unicode hex="0335"/>
  <anchor x="415" y="662" name="_center"/>
  <outline>
    <contour>
      <point x="117" y="645" type="line"/>
      <point x="712" y="645" type="line"/>
      <point x="712" y="679" type="line"/>
      <point x="117" y="679" type="line"/>
    </contour>
  </outline>
</glyph>
<glyph name="pi" format="2">
  <advance width="1043"/>
  <unicode hex="03C0"/>
  <outline>
    <contour>
      <point x="76" y="914" type="line"/>
      <point x="962" y="914" type="line"/>
      <point x="967" y="946" type="line"/>
      <point x="76" y="946" type="line"/>
    </contour>
    <contour>
      <point x="279" y="0" type="line"/>
      <point x="316" y="0" type="line"/>
      <point x="316" y="925" type="line"/>
      <point x="279" y="925" type="line"/>
    </contour>
    <contour>
      <point x="714" y="0" type="line"/>
      <point x="751" y="0" type="line"/>
      <point x="751" y="925" type="line"/>
      <point x="714" y="925" type="line"/>
    </contour>
  </outline>
</glyph>
<glyph name="llinebelow" format="2">
  <advance width="373"/>
  <unicode hex="1E3B"/>
  <anchor x="186.5" y="-264" name="bottom"/>
  <anchor x="187" y="657" name="center"/>
  <anchor x="187" y="1329" name="top"/>
  <anchor x="404" y="1329" name="topright"/>
  <outline>
    <contour>
      <point x="-30" y="-273" type="line"/>
      <point x="403" y="-273" type="line"/>
      <point x="403" y="-241" type="line"/>
      <point x="-30" y="-241" type="line"/>
    </contour>
    <component base="l"/>
  </outline>
</glyph>
<glyph name="Otildedieresis" format="2">
  <advance width="1133"/>
  <unicode hex="1E4E"/>
  <anchor x="567" y="1874" name="top"/>
  <anchor x="567" y="0" name="bottom"/>
  <anchor x="567" y="639" name="center"/>
  <anchor x="759" y="5" name="ogonek"/>
  <anchor x="7" y="1278" name="topleft"/>
  <anchor x="896" y="1278" name="topright"/>
  <outline>
    <contour>
      <point x="434" y="1781" type="curve" smooth="yes"/>
      <point x="463" y="1781"/>
      <point x="477" y="1799"/>
      <point x="477" y="1836" type="curve" smooth="yes"/>
      <point x="477" y="1842" type="line" smooth="yes"/>
      <point x="477" y="1877"/>
      <point x="463" y="1895"/>
      <point x="434" y="1895" type="curve" smooth="yes"/>
      <point x="405" y="1895"/>
      <point x="391" y="1877"/>
      <point x="391" y="1842" type="curve" smooth="yes"/>
      <point x="391" y="1836" type="line" smooth="yes"/>
      <point x="391" y="1799"/>
      <point x="405" y="1781"/>
    </contour>
    <contour>
      <point x="701" y="1781" type="curve" smooth="yes"/>
      <point x="729" y="1781"/>
      <point x="743" y="1799"/>
      <point x="743" y="1836" type="curve" smooth="yes"/>
      <point x="743" y="1842" type="line" smooth="yes"/>
      <point x="743" y="1877"/>
      <point x="729" y="1895"/>
      <point x="701" y="1895" type="curve" smooth="yes"/>
      <point x="672" y="1895"/>
      <point x="658" y="1877"/>
      <point x="658" y="1842" type="curve" smooth="yes"/>
      <point x="658" y="1836" type="line" smooth="yes"/>
      <point x="658" y="1799"/>
      <point x="672" y="1781"/>
    </contour>
    <component base="O"/>
    <component base="tildecomb.case" xOffset="216"/>
  </outline>
</glyph>
<glyph name="otildedieresis" format="2">
  <advance width="998"/>
  <unicode hex="1E4F"/>
  <anchor x="499" y="1619" name="top"/>
  <anchor x="499" y="0" name="bottom"/>
  <anchor x="508" y="307" name="center"/>
  <anchor x="691" y="0" name="ogonek"/>
  <anchor x="823" y="971" name="topright"/>
  <outline>
    <contour>
      <point x="366" y="1501" type="curve" smooth="yes"/>
      <point x="395" y="1501"/>
      <point x="409" y="1519"/>
      <point x="409" y="1556" type="curve" smooth="yes"/>
      <point x="409" y="1562" type="line" smooth="yes"/>
      <point x="409" y="1597"/>
      <point x="395" y="1615"/>
      <point x="366" y="1615" type="curve" smooth="yes"/>
      <point x="337" y="1615"/>
      <point x="323" y="1597"/>
      <point x="323" y="1562" type="curve" smooth="yes"/>
      <point x="323" y="1556" type="line" smooth="yes"/>
      <point x="323" y="1519"/>
      <point x="337" y="1501"/>
    </contour>
    <contour>
      <point x="633" y="1501" type="curve" smooth="yes"/>
      <point x="661" y="1501"/>
      <point x="675" y="1519"/>
      <point x="675" y="1556" type="curve" smooth="yes"/>
      <point x="675" y="1562" type="line" smooth="yes"/>
      <point x="675" y="1597"/>
      <point x="661" y="1615"/>
      <point x="633" y="1615" type="curve" smooth="yes"/>
      <point x="604" y="1615"/>
      <point x="590" y="1597"/>
      <point x="590" y="1562" type="curve" smooth="yes"/>
      <point x="590" y="1556" type="line" smooth="yes"/>
      <point x="590" y="1519"/>
      <point x="604" y="1501"/>
    </contour>
    <component base="o"/>
    <component base="tildecomb" xOffset="160"/>
  </outline>
</glyph>
<glyph name="sacutedotaccent" format="2">
  <advance width="846"/>
  <unicode hex="1E65"/>
  <anchor x="425" y="1624" name="top"/>
  <anchor x="421" y="0" name="bottom"/>
  <outline>
    <contour>
      <point x="425" y="1506" type="curve" smooth="yes"/>
      <point x="454" y="1506"/>
      <point x="469" y="1524"/>
      <point x="469" y="1561" type="curve" smooth="yes"/>
      <point x="469" y="1567" type="line" smooth="yes"/>
      <point x="469" y="1602"/>
      <point x="454" y="1620"/>
      <point x="425" y="1620" type="curve" smooth="yes"/>
      <point x="397" y="1620"/>
      <point x="382" y="1602"/>
      <point x="382" y="1567" type="curve" smooth="yes"/>
      <point x="382" y="1561" type="line" smooth="yes"/>
      <point x="382" y="1524"/>
      <point x="397" y="1506"/>
    </contour>
    <component base="s"/>
    <component base="acutecomb" xOffset="300"/>
  </outline>
</glyph>
<glyph name="Scarondotaccent" format="2">
  <advance width="1017"/>
  <unicode hex="1E66"/>
  <anchor x="500" y="1877" name="top"/>
  <anchor x="500" y="0" name="bottom"/>
  <outline>
    <contour>
      <point x="499" y="1780" type="curve" smooth="yes"/>
      <point x="528" y="1780"/>
      <point x="543" y="1798"/>
      <point x="543" y="1835" type="curve" smooth="yes"/>
      <point x="543" y="1839" type="line" smooth="yes"/>
      <point x="543" y="1874"/>
      <point x="528" y="1892"/>
      <point x="499" y="1892" type="curve" smooth="yes"/>
      <point x="471" y="1892"/>
      <point x="456" y="1874"/>
      <point x="456" y="1839" type="curve" smooth="yes"/>
      <point x="456" y="1835" type="line" smooth="yes"/>
      <point x="456" y="1798"/>
      <point x="471" y="1780"/>
    </contour>
    <component base="S"/>
    <component base="caroncomb.case" xOffset="131"/>
  </outline>
</glyph>
<glyph name="scarondotaccent" format="2">
  <advance width="846"/>
  <unicode hex="1E67"/>
  <anchor x="420" y="1624" name="top"/>
  <anchor x="421" y="0" name="bottom"/>
  <outline>
    <contour>
      <point x="420" y="1506" type="curve" smooth="yes"/>
      <point x="449" y="1506"/>
      <point x="464" y="1524"/>
      <point x="464" y="1561" type="curve" smooth="yes"/>
      <point x="464" y="1567" type="line" smooth="yes"/>
      <point x="464" y="1602"/>
      <point x="449" y="1620"/>
      <point x="420" y="1620" type="curve" smooth="yes"/>
      <point x="392" y="1620"/>
      <point x="377" y="1602"/>
      <point x="377" y="1567" type="curve" smooth="yes"/>
      <point x="377" y="1561" type="line" smooth="yes"/>
      <point x="377" y="1524"/>
      <point x="392" y="1506"/>
    </contour>
    <component base="s"/>
    <component base="caroncomb" xOffset="87"/>
  </outline>
</glyph>
<glyph name="Ohorntilde" format="2">
  <advance width="1133"/>
  <unicode hex="1EE0"/>
  <anchor x="566.92" y="1582" name="top"/>
  <anchor x="567" y="0" name="bottom"/>
  <anchor x="567" y="639" name="center"/>
  <anchor x="759" y="5" name="ogonek"/>
  <anchor x="7" y="1278" name="topleft"/>
  <anchor x="1046" y="1534" name="topright"/>
  <outline>
    <contour>
      <point x="697" y="1448" type="curve" smooth="yes"/>
      <point x="769" y="1448"/>
      <point x="791" y="1499"/>
      <point x="791" y="1569" type="curve" smooth="yes"/>
      <point x="791" y="1601" type="line"/>
      <point x="762" y="1601" type="line"/>
      <point x="762" y="1571" type="line" smooth="yes"/>
      <point x="762" y="1513"/>
      <point x="744" y="1481"/>
      <point x="698" y="1481" type="curve" smooth="yes"/>
      <point x="611" y="1481"/>
      <point x="536" y="1593"/>
      <point x="436" y="1593" type="curve" smooth="yes"/>
      <point x="364" y="1593"/>
      <point x="342" y="1541"/>
      <point x="342" y="1471" type="curve" smooth="yes"/>
      <point x="342" y="1439" type="line"/>
      <point x="371" y="1439" type="line"/>
      <point x="371" y="1470" type="line" smooth="yes"/>
      <point x="371" y="1528"/>
      <point x="388" y="1560"/>
      <point x="435" y="1560" type="curve" smooth="yes"/>
      <point x="521" y="1560"/>
      <point x="595" y="1448"/>
    </contour>
    <component base="Ohorn"/>
  </outline>
</glyph>
<glyph name="Uhorntilde" format="2">
  <advance width="1170"/>
  <unicode hex="1EEE"/>
  <anchor x="585" y="1582" name="top"/>
  <anchor x="585" y="0" name="bottom"/>
  <anchor x="779" y="5" name="ogonek"/>
  <anchor x="1210" y="1534" name="topright"/>
  <outline>
    <contour>
      <point x="726" y="1448" type="curve" smooth="yes"/>
      <point x="805" y="1448"/>
      <point x="829" y="1499"/>
      <point x="829" y="1569" type="curve" smooth="yes"/>
      <point x="829" y="1601" type="line"/>
      <point x="797" y="1601" type="line"/>
      <point x="797" y="1571" type="line" smooth="yes"/>
      <point x="797" y="1513"/>
      <point x="778" y="1481"/>
      <point x="727" y="1481" type="curve" smooth="yes"/>
      <point x="633" y="1481"/>
      <point x="551" y="1593"/>
      <point x="443" y="1593" type="curve" smooth="yes"/>
      <point x="364" y="1593"/>
      <point x="340" y="1541"/>
      <point x="340" y="1471" type="curve" smooth="yes"/>
      <point x="340" y="1439" type="line"/>
      <point x="372" y="1439" type="line"/>
      <point x="372" y="1470" type="line" smooth="yes"/>
      <point x="372" y="1528"/>
      <point x="391" y="1560"/>
      <point x="442" y="1560" type="curve" smooth="yes"/>
      <point x="535" y="1560"/>
      <point x="616" y="1448"/>
    </contour>
    <component base="Uhorn"/>
  </outline>
</glyph>
<glyph name="dagger" format="2">
  <advance width="840"/>
  <unicode hex="2020"/>
  <outline>
    <contour>
      <point x="54" y="913" type="line"/>
      <point x="420" y="916" type="line"/>
      <point x="786" y="913" type="line"/>
      <point x="786" y="947" type="line"/>
      <point x="421" y="944" type="line"/>
      <point x="54" y="947" type="line"/>
    </contour>
    <contour>
      <point x="401" y="643" type="line"/>
      <point x="401" y="355" type="line"/>
      <point x="406" y="-279" type="line"/>
      <point x="434" y="-279" type="line"/>
      <point x="440" y="356" type="line"/>
      <point x="440" y="643" type="line"/>
      <point x="437" y="928" type="line"/>
      <point x="437" y="933" type="line"/>
      <point x="440" y="1278" type="line"/>
      <point x="401" y="1278" type="line"/>
      <point x="404" y="933" type="line"/>
      <point x="404" y="928" type="line"/>
    </contour>
  </outline>
</glyph>
<glyph name="daggerdbl" format="2">
  <advance width="860"/>
  <unicode hex="2021"/>
  <outline>
    <contour>
      <point x="64" y="913" type="line"/>
      <point x="430" y="916" type="line"/>
      <point x="796" y="913" type="line"/>
      <point x="796" y="947" type="line"/>
      <point x="431" y="944" type="line"/>
      <point x="64" y="947" type="line"/>
    </contour>
    <contour>
      <point x="64" y="86" type="line"/>
      <point x="64" y="52" type="line"/>
      <point x="431" y="55" type="line"/>
      <point x="796" y="52" type="line"/>
      <point x="796" y="86" type="line"/>
      <point x="430" y="83" type="line"/>
    </contour>
    <contour>
      <point x="411" y="-279" type="line"/>
      <point x="450" y="-279" type="line"/>
      <point x="447" y="68" type="line"/>
      <point x="447" y="72" type="line"/>
      <point x="450" y="356" type="line"/>
      <point x="450" y="643" type="line"/>
      <point x="447" y="928" type="line"/>
      <point x="447" y="932" type="line"/>
      <point x="450" y="1278" type="line"/>
      <point x="411" y="1278" type="line"/>
      <point x="414" y="932" type="line"/>
      <point x="414" y="928" type="line"/>
      <point x="411" y="643" type="line"/>
      <point x="411" y="355" type="line"/>
      <point x="414" y="72" type="line"/>
      <point x="414" y="68" type="line"/>
    </contour>
  </outline>
</glyph>
<glyph name="perthousand" format="2">
  <advance width="1950"/>
  <unicode hex="2030"/>
  <outline>
    <contour>
      <point x="1608" y="-18" type="curve" smooth="yes"/>
      <point x="1753" y="-18"/>
      <point x="1834" y="83"/>
      <point x="1834" y="238" type="curve"/>
      <point x="1834" y="340" type="line"/>
      <point x="1834" y="496"/>
      <point x="1754" y="596"/>
      <point x="1608" y="596" type="curve" smooth="yes"/>
      <point x="1462" y="596"/>
      <point x="1381" y="496"/>
      <point x="1381" y="340" type="curve"/>
      <point x="1381" y="238" type="line"/>
      <point x="1381" y="83"/>
      <point x="1461" y="-18"/>
    </contour>
    <contour>
      <point x="1608" y="14" type="curve" smooth="yes"/>
      <point x="1485" y="14"/>
      <point x="1416" y="95"/>
      <point x="1416" y="237" type="curve" smooth="yes"/>
      <point x="1416" y="341" type="line" smooth="yes"/>
      <point x="1416" y="482"/>
      <point x="1484" y="564"/>
      <point x="1608" y="564" type="curve" smooth="yes"/>
      <point x="1730" y="564"/>
      <point x="1799" y="482"/>
      <point x="1799" y="341" type="curve" smooth="yes"/>
      <point x="1799" y="237" type="line" smooth="yes"/>
      <point x="1799" y="95"/>
      <point x="1731" y="14"/>
    </contour>
    <component base="percent"/>
  </outline>
</glyph>
<glyph name="minute" format="2">
  <advance width="301"/>
  <unicode hex="2032"/>
  <outline>
    <contour>
      <point x="154" y="871" type="line"/>
      <point x="206" y="1329" type="line"/>
      <point x="165" y="1329" type="line"/>
      <point x="123" y="871" type="line"/>
    </contour>
  </outline>
</glyph>
<glyph name="commercialMinusSign" format="2">
  <advance width="697"/>
  <unicode hex="2052"/>
  <outline>
    <contour>
      <point x="109" y="0" type="line"/>
      <point x="146" y="0" type="line"/>
      <point x="588" y="1278" type="line"/>
      <point x="551" y="1278" type="line"/>
    </contour>
    <component base="period" xOffset="1" yOffset="1183"/>
    <component base="period" xOffset="393"/>
  </outline>
</glyph>
<glyph name="foursuperior" format="2">
  <advance width="609"/>
  <unicode hex="2074"/>
  <outline>
    <contour>
      <point x="437" y="725" type="line"/>
      <point x="471" y="725" type="line"/>
      <point x="471" y="1403" type="line"/>
      <point x="397" y="1403" type="line"/>
      <point x="41" y="908" type="line"/>
      <point x="41" y="868" type="line"/>
      <point x="587" y="868" type="line"/>
      <point x="587" y="898" type="line"/>
      <point x="61" y="898" type="line"/>
      <point x="77" y="881" type="line"/>
      <point x="77" y="903" type="line"/>
      <point x="417" y="1375" type="line"/>
      <point x="439" y="1375" type="line"/>
      <point x="437" y="1233" type="line"/>
    </contour>
  </outline>
</glyph>
<glyph name="colonsign" format="2">
  <advance width="995"/>
  <unicode hex="20A1"/>
  <anchor x="520" y="0" name="bottom"/>
  <anchor x="520" y="1278" name="top"/>
  <outline>
    <contour>
      <point x="271" y="-185" type="line"/>
      <point x="306" y="-185" type="line"/>
      <point x="347" y="59" type="line"/>
      <point x="312" y="59" type="line"/>
    </contour>
    <contour>
      <point x="456" y="-185" type="line"/>
      <point x="491" y="-185" type="line"/>
      <point x="523" y="2" type="line"/>
      <point x="487" y="2" type="line"/>
    </contour>
    <contour>
      <point x="517" y="1279" type="line"/>
      <point x="553" y="1279" type="line"/>
      <point x="582" y="1454" type="line"/>
      <point x="547" y="1454" type="line"/>
    </contour>
    <contour>
      <point x="698" y="1254" type="line"/>
      <point x="734" y="1254" type="line"/>
      <point x="767" y="1454" type="line"/>
      <point x="732" y="1454" type="line"/>
    </contour>
    <component base="C"/>
  </outline>
</glyph>
<glyph name="franc" format="2">
  <advance width="988"/>
  <unicode hex="20A3"/>
  <outline>
    <contour>
      <point x="199" y="0" type="line"/>
      <point x="238" y="0" type="line"/>
      <point x="238" y="1278" type="line"/>
      <point x="199" y="1278" type="line"/>
    </contour>
    <contour>
      <point x="32" y="276" type="line"/>
      <point x="698" y="276" type="line"/>
      <point x="705" y="309" type="line"/>
      <point x="38" y="309" type="line"/>
    </contour>
    <contour>
      <point x="219" y="622" type="line"/>
      <point x="876" y="622" type="line"/>
      <point x="876" y="657" type="line"/>
      <point x="219" y="657" type="line"/>
    </contour>
    <contour>
      <point x="210" y="1243" type="line"/>
      <point x="890" y="1243" type="line"/>
      <point x="890" y="1278" type="line"/>
      <point x="210" y="1278" type="line"/>
    </contour>
  </outline>
</glyph>
<glyph name="lira" format="2">
  <advance width="1067"/>
  <unicode hex="20A4"/>
  <outline>
    <contour>
      <point x="158" y="35" type="line"/>
      <point x="168" y="28" type="line"/>
      <point x="281" y="83"/>
      <point x="341" y="187"/>
      <point x="341" y="362" type="curve" smooth="yes"/>
      <point x="341" y="572"/>
      <point x="266" y="739"/>
      <point x="266" y="949" type="curve" smooth="yes"/>
      <point x="266" y="1159"/>
      <point x="387" y="1260"/>
      <point x="598" y="1260" type="curve" smooth="yes"/>
      <point x="704" y="1260"/>
      <point x="806" y="1239"/>
      <point x="903" y="1195" type="curve"/>
      <point x="898" y="1235" type="line"/>
      <point x="820" y="1269"/>
      <point x="711" y="1296"/>
      <point x="600" y="1296" type="curve" smooth="yes"/>
      <point x="352" y="1296"/>
      <point x="227" y="1181"/>
      <point x="227" y="948" type="curve" smooth="yes"/>
      <point x="227" y="729"/>
      <point x="303" y="566"/>
      <point x="302" y="360" type="curve" smooth="yes"/>
      <point x="301" y="177"/>
      <point x="239" y="74"/>
      <point x="118" y="38" type="curve" smooth="yes"/>
      <point x="91" y="30" type="line"/>
      <point x="91" y="0" type="line"/>
      <point x="972" y="0" type="line"/>
      <point x="972" y="35" type="line"/>
    </contour>
    <contour>
      <point x="87" y="825" type="line"/>
      <point x="81" y="792" type="line"/>
      <point x="854" y="792" type="line"/>
      <point x="861" y="825" type="line"/>
    </contour>
    <contour>
      <point x="87" y="501" type="line"/>
      <point x="81" y="468" type="line"/>
      <point x="854" y="468" type="line"/>
      <point x="861" y="501" type="line"/>
    </contour>
  </outline>
</glyph>
<glyph name="naira" format="2">
  <advance width="1228"/>
  <unicode hex="20A6"/>
  <outline>
    <contour>
      <point x="204" y="0" type="line"/>
      <point x="243" y="0" type="line"/>
      <point x="243" y="626" type="line"/>
      <point x="241" y="1246" type="line"/>
      <point x="255" y="1246" type="line"/>
      <point x="584" y="655" type="line"/>
      <point x="626" y="655" type="line"/>
      <point x="279" y="1278" type="line"/>
      <point x="204" y="1278" type="line"/>
    </contour>
    <contour>
      <point x="36" y="637" type="line"/>
      <point x="1184" y="637" type="line"/>
      <point x="1191" y="671" type="line"/>
      <point x="43" y="671" type="line"/>
    </contour>
    <contour>
      <point x="948" y="0" type="line"/>
      <point x="1023" y="0" type="line"/>
      <point x="1023" y="1278" type="line"/>
      <point x="984" y="1278" type="line"/>
      <point x="984" y="611" type="line"/>
      <point x="986" y="33" type="line"/>
      <point x="972" y="33" type="line"/>
      <point x="626" y="655" type="line"/>
      <point x="584" y="655" type="line"/>
    </contour>
  </outline>
</glyph>
<glyph name="won" format="2">
  <advance width="1601"/>
  <unicode hex="20A9"/>
  <outline>
    <contour>
      <point x="410" y="0" type="line"/>
      <point x="492" y="0" type="line"/>
      <point x="654" y="646" type="line"/>
      <point x="617" y="646" type="line"/>
      <point x="474" y="76" type="line"/>
      <point x="463" y="34" type="line"/>
      <point x="439" y="34" type="line"/>
      <point x="429" y="76" type="line"/>
      <point x="151" y="1278" type="line"/>
      <point x="110" y="1278" type="line"/>
    </contour>
    <contour>
      <point x="1114" y="0" type="line"/>
      <point x="1194" y="0" type="line"/>
      <point x="1494" y="1278" type="line"/>
      <point x="1454" y="1278" type="line"/>
      <point x="1176" y="75" type="line"/>
      <point x="1166" y="34" type="line"/>
      <point x="1142" y="34" type="line"/>
      <point x="1132" y="75" type="line"/>
      <point x="987" y="646" type="line"/>
      <point x="950" y="646" type="line"/>
    </contour>
    <contour>
      <point x="90" y="637" type="line"/>
      <point x="1498" y="637" type="line"/>
      <point x="1504" y="671" type="line"/>
      <point x="97" y="671" type="line"/>
    </contour>
    <contour>
      <point x="765" y="1240" type="line"/>
      <point x="618" y="655" type="line"/>
      <point x="655" y="655" type="line"/>
      <point x="711" y="876" type="line"/>
      <point x="794" y="1208" type="line"/>
      <point x="810" y="1208" type="line"/>
      <point x="893" y="876" type="line"/>
      <point x="949" y="655" type="line"/>
      <point x="986" y="655" type="line"/>
      <point x="839" y="1240" type="line"/>
    </contour>
  </outline>
</glyph>
<glyph name="uni20AA" format="2">
  <advance width="1406"/>
  <unicode hex="20AA"/>
  <outline>
    <contour>
      <point x="528" y="0" type="line"/>
      <point x="916" y="0" type="line" smooth="yes"/>
      <point x="1132" y="0"/>
      <point x="1221" y="103"/>
      <point x="1221" y="304" type="curve" smooth="yes"/>
      <point x="1221" y="1090" type="line"/>
      <point x="1184" y="1090" type="line"/>
      <point x="1184" y="304" type="line" smooth="yes"/>
      <point x="1184" y="126"/>
      <point x="1106" y="33"/>
      <point x="916" y="33" type="curve" smooth="yes"/>
      <point x="565" y="33" type="line"/>
      <point x="565" y="790" type="line"/>
      <point x="528" y="790" type="line"/>
    </contour>
    <contour>
      <point x="185" y="1090" type="line"/>
      <point x="185" y="0" type="line"/>
      <point x="222" y="0" type="line"/>
      <point x="222" y="1057" type="line"/>
      <point x="589" y="1057" type="line" smooth="yes"/>
      <point x="779" y="1057"/>
      <point x="857" y="964"/>
      <point x="857" y="786" type="curve" smooth="yes"/>
      <point x="857" y="300" type="line"/>
      <point x="894" y="300" type="line"/>
      <point x="894" y="786" type="line" smooth="yes"/>
      <point x="894" y="987"/>
      <point x="805" y="1090"/>
      <point x="589" y="1090" type="curve" smooth="yes"/>
    </contour>
  </outline>
</glyph>
<glyph name="dong" format="2">
  <advance width="1029"/>
  <unicode hex="20AB"/>
  <anchor x="509.069" y="-264" name="bottom"/>
  <anchor x="509" y="486" name="center"/>
  <anchor x="509" y="1329" name="top"/>
  <anchor x="1065" y="1329" name="topright"/>
  <outline>
    <contour>
      <point x="151" y="-273" type="line"/>
      <point x="867" y="-273" type="line"/>
      <point x="867" y="-241" type="line"/>
      <point x="151" y="-241" type="line"/>
    </contour>
    <component base="dcroat"/>
  </outline>
</glyph>
<glyph name="kip" format="2">
  <advance width="1095"/>
  <unicode hex="20AD"/>
  <anchor x="567" y="0" name="bottom"/>
  <anchor x="567" y="1278" name="top"/>
  <outline>
    <contour>
      <point x="448" y="669" type="line"/>
      <point x="445" y="635" type="line"/>
      <point x="914" y="635" type="line"/>
      <point x="921" y="669" type="line"/>
    </contour>
    <contour>
      <point x="224" y="635" type="line"/>
      <point x="227" y="669" type="line"/>
      <point x="43" y="669" type="line"/>
      <point x="36" y="635" type="line"/>
    </contour>
    <component base="K" xOffset="19"/>
  </outline>
</glyph>
<glyph name="uni20AE" format="2">
  <advance width="1009"/>
  <unicode hex="20AE"/>
  <anchor x="505" y="0" name="bottom"/>
  <anchor x="505" y="639" name="center"/>
  <anchor x="505" y="1278" name="top"/>
  <outline>
    <contour>
      <point x="827" y="933" type="line"/>
      <point x="183" y="678" type="line"/>
      <point x="183" y="642" type="line"/>
      <point x="827" y="898" type="line"/>
    </contour>
    <contour>
      <point x="827" y="610" type="line"/>
      <point x="183" y="355" type="line"/>
      <point x="183" y="319" type="line"/>
      <point x="827" y="575" type="line"/>
    </contour>
    <component base="T"/>
  </outline>
</glyph>
<glyph name="peso" format="2">
  <advance width="1186"/>
  <unicode hex="20B1"/>
  <outline>
    <contour>
      <point x="229" y="415" type="line"/>
      <point x="628" y="415" type="line" smooth="yes"/>
      <point x="880" y="415"/>
      <point x="987" y="557"/>
      <point x="987" y="771" type="curve" smooth="yes"/>
      <point x="987" y="928" type="line" smooth="yes"/>
      <point x="987" y="1139"/>
      <point x="881" y="1278"/>
      <point x="631" y="1278" type="curve" smooth="yes"/>
      <point x="227" y="1278" type="line"/>
      <point x="227" y="1244" type="line"/>
      <point x="629" y="1244" type="line" smooth="yes"/>
      <point x="858" y="1244"/>
      <point x="948" y="1120"/>
      <point x="948" y="926" type="curve" smooth="yes"/>
      <point x="948" y="773" type="line" smooth="yes"/>
      <point x="948" y="576"/>
      <point x="857" y="450"/>
      <point x="626" y="450" type="curve" smooth="yes"/>
      <point x="229" y="450" type="line"/>
    </contour>
    <contour>
      <point x="41" y="691" type="line"/>
      <point x="226" y="691" type="line"/>
      <point x="226" y="723" type="line"/>
      <point x="48" y="723" type="line"/>
    </contour>
    <contour>
      <point x="209" y="0" type="line"/>
      <point x="248" y="0" type="line"/>
      <point x="248" y="424" type="line"/>
      <point x="248" y="440" type="line"/>
      <point x="248" y="1278" type="line"/>
      <point x="209" y="1278" type="line"/>
    </contour>
    <contour>
      <point x="41" y="978" type="line"/>
      <point x="226" y="978" type="line"/>
      <point x="226" y="1010" type="line"/>
      <point x="48" y="1010" type="line"/>
    </contour>
    <contour>
      <point x="961" y="691" type="line"/>
      <point x="1148" y="691" type="line"/>
      <point x="1155" y="723" type="line"/>
      <point x="961" y="723" type="line"/>
    </contour>
    <contour>
      <point x="961" y="978" type="line"/>
      <point x="1148" y="978" type="line"/>
      <point x="1155" y="1010" type="line"/>
      <point x="961" y="1010" type="line"/>
    </contour>
  </outline>
</glyph>
<glyph name="guarani" format="2">
  <advance width="1123"/>
  <unicode hex="20B2"/>
  <outline>
    <contour>
      <point x="585" y="1279" type="line"/>
      <point x="585" y="1498" type="line"/>
      <point x="549" y="1498" type="line"/>
      <point x="549" y="1279" type="line"/>
    </contour>
    <contour>
      <point x="585" y="-230" type="line"/>
      <point x="585" y="1" type="line"/>
      <point x="549" y="1" type="line"/>
      <point x="549" y="-230" type="line"/>
    </contour>
    <contour>
      <point x="565" y="-18" type="curve" smooth="yes"/>
      <point x="773" y="-18"/>
      <point x="895" y="56"/>
      <point x="963" y="133" type="curve"/>
      <point x="963" y="680" type="line"/>
      <point x="567" y="680" type="line"/>
      <point x="567" y="646" type="line"/>
      <point x="940" y="646" type="line"/>
      <point x="925" y="666" type="line"/>
      <point x="925" y="145" type="line"/>
      <point x="880" y="94"/>
      <point x="763" y="18"/>
      <point x="566" y="18" type="curve" smooth="yes"/>
      <point x="301" y="18"/>
      <point x="166" y="176"/>
      <point x="166" y="455" type="curve" smooth="yes"/>
      <point x="166" y="806" type="line" smooth="yes"/>
      <point x="166" y="1097"/>
      <point x="303" y="1260"/>
      <point x="563" y="1260" type="curve" smooth="yes"/>
      <point x="734" y="1260"/>
      <point x="855" y="1200"/>
      <point x="941" y="1131" type="curve"/>
      <point x="935" y="1173" type="line"/>
      <point x="867" y="1231"/>
      <point x="744" y="1296"/>
      <point x="564" y="1296" type="curve" smooth="yes"/>
      <point x="277" y="1296"/>
      <point x="127" y="1119"/>
      <point x="127" y="806" type="curve" smooth="yes"/>
      <point x="127" y="455" type="line" smooth="yes"/>
      <point x="127" y="152"/>
      <point x="277" y="-18"/>
    </contour>
  </outline>
</glyph>
<glyph name="cedi" format="2">
  <advance width="995"/>
  <unicode hex="20B5"/>
  <anchor x="520" y="0" name="bottom"/>
  <anchor x="520" y="1278" name="top"/>
  <outline>
    <contour>
      <point x="529" y="-228" type="line"/>
      <point x="565" y="-228" type="line"/>
      <point x="565" y="4" type="line"/>
      <point x="529" y="4" type="line"/>
    </contour>
    <contour>
      <point x="529" y="1276" type="line"/>
      <point x="565" y="1276" type="line"/>
      <point x="565" y="1500" type="line"/>
      <point x="529" y="1500" type="line"/>
    </contour>
    <component base="C"/>
  </outline>
</glyph>
<glyph name="liraTurkish" format="2">
  <advance width="1110"/>
  <unicode hex="20BA"/>
  <outline>
    <contour>
      <point x="214" y="0" type="line"/>
      <point x="361" y="0" type="line" smooth="yes"/>
      <point x="780" y="0"/>
      <point x="977" y="170"/>
      <point x="977" y="502" type="curve" smooth="yes"/>
      <point x="977" y="628" type="line"/>
      <point x="940" y="628" type="line"/>
      <point x="940" y="504" type="line" smooth="yes"/>
      <point x="939" y="195"/>
      <point x="754" y="35"/>
      <point x="372" y="35" type="curve" smooth="yes"/>
      <point x="253" y="35" type="line"/>
      <point x="253" y="1278" type="line"/>
      <point x="214" y="1278" type="line"/>
    </contour>
    <contour>
      <point x="690" y="1121" type="line"/>
      <point x="46" y="866" type="line"/>
      <point x="46" y="830" type="line"/>
      <point x="690" y="1086" type="line"/>
    </contour>
    <contour>
      <point x="690" y="798" type="line"/>
      <point x="46" y="543" type="line"/>
      <point x="46" y="507" type="line"/>
      <point x="690" y="763" type="line"/>
    </contour>
  </outline>
</glyph>
<glyph name="manat" format="2">
  <advance width="1360"/>
  <unicode hex="20BC"/>
  <outline>
    <contour>
      <point x="680" y="1296" type="curve" smooth="yes"/>
      <point x="356" y="1296"/>
      <point x="174" y="1119"/>
      <point x="174" y="793" type="curve"/>
      <point x="174" y="0" type="line"/>
      <point x="214" y="0" type="line"/>
      <point x="214" y="792" type="line" smooth="yes"/>
      <point x="214" y="1093"/>
      <point x="378" y="1260"/>
      <point x="680" y="1260" type="curve" smooth="yes"/>
      <point x="981" y="1260"/>
      <point x="1147" y="1093"/>
      <point x="1147" y="792" type="curve" smooth="yes"/>
      <point x="1147" y="0" type="line"/>
      <point x="1186" y="0" type="line"/>
      <point x="1186" y="793" type="line"/>
      <point x="1186" y="1119"/>
      <point x="1004" y="1296"/>
    </contour>
    <contour>
      <point x="700" y="0" type="line"/>
      <point x="700" y="1500" type="line"/>
      <point x="661" y="1500" type="line"/>
      <point x="661" y="0" type="line"/>
    </contour>
  </outline>
</glyph>
<glyph name="ruble" format="2">
  <advance width="1097"/>
  <unicode hex="20BD"/>
  <outline>
    <contour>
      <point x="229" y="540" type="line"/>
      <point x="624" y="540" type="line" smooth="yes"/>
      <point x="879" y="540"/>
      <point x="987" y="682"/>
      <point x="987" y="896" type="curve" smooth="yes"/>
      <point x="987" y="928" type="line" smooth="yes"/>
      <point x="987" y="1139"/>
      <point x="880" y="1278"/>
      <point x="627" y="1278" type="curve" smooth="yes"/>
      <point x="227" y="1278" type="line"/>
      <point x="227" y="1244" type="line"/>
      <point x="625" y="1244" type="line" smooth="yes"/>
      <point x="857" y="1244"/>
      <point x="948" y="1120"/>
      <point x="948" y="926" type="curve" smooth="yes"/>
      <point x="948" y="898" type="line" smooth="yes"/>
      <point x="948" y="701"/>
      <point x="856" y="575"/>
      <point x="622" y="575" type="curve" smooth="yes"/>
      <point x="229" y="575" type="line"/>
    </contour>
    <contour>
      <point x="42" y="256" type="line"/>
      <point x="708" y="256" type="line"/>
      <point x="715" y="289" type="line"/>
      <point x="48" y="289" type="line"/>
    </contour>
    <contour>
      <point x="42" y="540" type="line"/>
      <point x="234" y="540" type="line"/>
      <point x="234" y="573" type="line"/>
      <point x="48" y="573" type="line"/>
    </contour>
    <contour>
      <point x="209" y="0" type="line"/>
      <point x="248" y="0" type="line"/>
      <point x="248" y="549" type="line"/>
      <point x="248" y="565" type="line"/>
      <point x="248" y="1278" type="line"/>
      <point x="209" y="1278" type="line"/>
    </contour>
  </outline>
</glyph>
<glyph name="literSign" format="2">
  <advance width="761"/>
  <unicode hex="2113"/>
  <outline>
    <contour>
      <point x="189" y="365" type="curve"/>
      <point x="189" y="320" type="line"/>
      <point x="504" y="517"/>
      <point x="655" y="673"/>
      <point x="655" y="968" type="curve" smooth="yes"/>
      <point x="655" y="1052" type="line" smooth="yes"/>
      <point x="655" y="1229"/>
      <point x="579" y="1339"/>
      <point x="413" y="1339" type="curve" smooth="yes"/>
      <point x="246" y="1339"/>
      <point x="165" y="1238"/>
      <point x="165" y="1037" type="curve" smooth="yes"/>
      <point x="165" y="358" type="line"/>
      <point x="202" y="358" type="line"/>
      <point x="202" y="1037" type="line" smooth="yes"/>
      <point x="202" y="1215"/>
      <point x="270" y="1306"/>
      <point x="412" y="1306" type="curve" smooth="yes"/>
      <point x="555" y="1306"/>
      <point x="618" y="1207"/>
      <point x="618" y="1048" type="curve" smooth="yes"/>
      <point x="618" y="968" type="line" smooth="yes"/>
      <point x="618" y="690"/>
      <point x="474" y="544"/>
    </contour>
    <contour>
      <point x="187" y="318" type="curve"/>
      <point x="187" y="364" type="line"/>
      <point x="134" y="327"/>
      <point x="80" y="292"/>
      <point x="23" y="258" type="curve"/>
      <point x="23" y="212" type="line"/>
      <point x="81" y="247"/>
      <point x="135" y="283"/>
    </contour>
    <contour>
      <point x="436" y="-17" type="curve" smooth="yes"/>
      <point x="517" y="-17"/>
      <point x="595" y="10"/>
      <point x="652" y="49" type="curve"/>
      <point x="657" y="90" type="line"/>
      <point x="596" y="46"/>
      <point x="519" y="18"/>
      <point x="437" y="18" type="curve" smooth="yes"/>
      <point x="266" y="18"/>
      <point x="202" y="111"/>
      <point x="202" y="297" type="curve" smooth="yes"/>
      <point x="202" y="598" type="line"/>
      <point x="165" y="598" type="line"/>
      <point x="165" y="294" type="line" smooth="yes"/>
      <point x="165" y="87"/>
      <point x="247" y="-17"/>
    </contour>
  </outline>
</glyph>
<glyph name="numero" format="2">
  <advance width="1836"/>
  <unicode hex="2116"/>
  <anchor x="595" y="0" name="bottom"/>
  <anchor x="595" y="1278" name="top"/>
  <outline>
    <contour>
      <point x="1253" y="415" type="line"/>
      <point x="1737" y="415" type="line"/>
      <point x="1737" y="447" type="line"/>
      <point x="1253" y="447" type="line"/>
    </contour>
    <contour>
      <point x="1495" y="627" type="curve" smooth="yes"/>
      <point x="1656" y="627"/>
      <point x="1744" y="723"/>
      <point x="1744" y="908" type="curve" smooth="yes"/>
      <point x="1744" y="1005" type="line" smooth="yes"/>
      <point x="1744" y="1190"/>
      <point x="1656" y="1285"/>
      <point x="1495" y="1285" type="curve" smooth="yes"/>
      <point x="1334" y="1285"/>
      <point x="1245" y="1190"/>
      <point x="1245" y="1005" type="curve" smooth="yes"/>
      <point x="1245" y="908" type="line" smooth="yes"/>
      <point x="1245" y="723"/>
      <point x="1333" y="627"/>
    </contour>
    <contour>
      <point x="1495" y="659" type="curve" smooth="yes"/>
      <point x="1356" y="659"/>
      <point x="1281" y="745"/>
      <point x="1281" y="907" type="curve" smooth="yes"/>
      <point x="1281" y="1006" type="line" smooth="yes"/>
      <point x="1281" y="1168"/>
      <point x="1356" y="1253"/>
      <point x="1495" y="1253" type="curve" smooth="yes"/>
      <point x="1634" y="1253"/>
      <point x="1708" y="1169"/>
      <point x="1708" y="1006" type="curve" smooth="yes"/>
      <point x="1708" y="907" type="line" smooth="yes"/>
      <point x="1708" y="744"/>
      <point x="1633" y="659"/>
    </contour>
    <component base="N"/>
  </outline>
</glyph>
<glyph name="Ohm" format="2">
  <advance width="1130"/>
  <unicode hex="2126"/>
  <outline>
    <contour>
      <point x="565" y="1296" type="curve" smooth="yes"/>
      <point x="281" y="1296"/>
      <point x="126" y="1122"/>
      <point x="126" y="813" type="curve" smooth="yes"/>
      <point x="126" y="475" type="line" smooth="yes"/>
      <point x="126" y="228"/>
      <point x="241" y="71"/>
      <point x="426" y="26" type="curve"/>
      <point x="434" y="32" type="line"/>
      <point x="76" y="35" type="line"/>
      <point x="76" y="0" type="line"/>
      <point x="461" y="0" type="line"/>
      <point x="461" y="35" type="line"/>
      <point x="279" y="86"/>
      <point x="165" y="234"/>
      <point x="165" y="476" type="curve" smooth="yes"/>
      <point x="165" y="814" type="line" smooth="yes"/>
      <point x="165" y="1099"/>
      <point x="303" y="1260"/>
      <point x="565" y="1260" type="curve" smooth="yes"/>
      <point x="828" y="1260"/>
      <point x="966" y="1099"/>
      <point x="966" y="814" type="curve" smooth="yes"/>
      <point x="966" y="476" type="line" smooth="yes"/>
      <point x="966" y="234"/>
      <point x="852" y="86"/>
      <point x="669" y="35" type="curve"/>
      <point x="669" y="0" type="line"/>
      <point x="1054" y="0" type="line"/>
      <point x="1054" y="35" type="line"/>
      <point x="696" y="32" type="line"/>
      <point x="704" y="26" type="line"/>
      <point x="889" y="71"/>
      <point x="1005" y="228"/>
      <point x="1005" y="475" type="curve" smooth="yes"/>
      <point x="1005" y="813" type="line" smooth="yes"/>
      <point x="1005" y="1122"/>
      <point x="849" y="1296"/>
    </contour>
  </outline>
</glyph>
<glyph name="estimated" format="2">
  <advance width="1629"/>
  <unicode hex="212E"/>
  <outline>
    <contour>
      <point x="389" y="581" type="curve"/>
      <point x="1502" y="581" type="line"/>
      <point x="1502" y="606" type="line" smooth="yes"/>
      <point x="1502" y="979"/>
      <point x="1226" y="1227"/>
      <point x="813" y="1227" type="curve" smooth="yes"/>
      <point x="401" y="1227"/>
      <point x="127" y="979"/>
      <point x="127" y="606" type="curve" smooth="yes"/>
      <point x="127" y="226"/>
      <point x="401" y="-10"/>
      <point x="813" y="-10" type="curve" smooth="yes"/>
      <point x="1027" y="-10"/>
      <point x="1236" y="86"/>
      <point x="1360" y="230" type="curve"/>
      <point x="1259" y="230" type="line"/>
      <point x="1150" y="116"/>
      <point x="996" y="46"/>
      <point x="816" y="46" type="curve" smooth="yes"/>
      <point x="638" y="46"/>
      <point x="500" y="97"/>
      <point x="397" y="204" type="curve" smooth="yes"/>
      <point x="384" y="218"/>
      <point x="378" y="231"/>
      <point x="378" y="244" type="curve" smooth="yes"/>
      <point x="378" y="574" type="line" smooth="yes"/>
      <point x="378" y="579"/>
      <point x="382" y="581"/>
    </contour>
    <contour>
      <point x="1252" y="983" type="curve"/>
      <point x="1252" y="647" type="line" smooth="yes"/>
      <point x="1252" y="640"/>
      <point x="1249" y="637"/>
      <point x="1242" y="637" type="curve" smooth="yes"/>
      <point x="389" y="637" type="line" smooth="yes"/>
      <point x="382" y="637"/>
      <point x="378" y="640"/>
      <point x="378" y="647" type="curve" smooth="yes"/>
      <point x="378" y="976" type="line" smooth="yes"/>
      <point x="378" y="990"/>
      <point x="385" y="1007"/>
      <point x="397" y="1020" type="curve" smooth="yes"/>
      <point x="479" y="1104"/>
      <point x="648" y="1178"/>
      <point x="816" y="1178" type="curve" smooth="yes"/>
      <point x="981" y="1178"/>
      <point x="1136" y="1129"/>
      <point x="1232" y="1025" type="curve" smooth="yes"/>
      <point x="1245" y="1011"/>
      <point x="1252" y="998"/>
    </contour>
  </outline>
</glyph>
<glyph name="partialdiff" format="2">
  <advance width="1034"/>
  <unicode hex="2202"/>
  <outline>
    <contour>
      <point x="298" y="1256" type="curve"/>
      <point x="291" y="1217" type="line"/>
      <point x="354" y="1243"/>
      <point x="426" y="1259"/>
      <point x="524" y="1259" type="curve" smooth="yes"/>
      <point x="757" y="1259"/>
      <point x="864" y="1122"/>
      <point x="864" y="883" type="curve" smooth="yes"/>
      <point x="864" y="832"/>
      <point x="859" y="749"/>
      <point x="845" y="469" type="curve" smooth="yes"/>
      <point x="830" y="173"/>
      <point x="721" y="18"/>
      <point x="478" y="18" type="curve" smooth="yes"/>
      <point x="270" y="18"/>
      <point x="153" y="131"/>
      <point x="153" y="337" type="curve" smooth="yes"/>
      <point x="153" y="360"/>
      <point x="157" y="421"/>
      <point x="160" y="461" type="curve" smooth="yes"/>
      <point x="173" y="666"/>
      <point x="290" y="784"/>
      <point x="483" y="784" type="curve" smooth="yes"/>
      <point x="692" y="784"/>
      <point x="824" y="651"/>
      <point x="844" y="430" type="curve"/>
      <point x="867" y="457" type="line"/>
      <point x="855" y="457" type="line"/>
      <point x="849" y="668"/>
      <point x="711" y="818"/>
      <point x="484" y="818" type="curve" smooth="yes"/>
      <point x="271" y="818"/>
      <point x="137" y="690"/>
      <point x="122" y="460" type="curve" smooth="yes"/>
      <point x="119" y="421"/>
      <point x="115" y="363"/>
      <point x="115" y="333" type="curve" smooth="yes"/>
      <point x="115" y="108"/>
      <point x="249" y="-18"/>
      <point x="476" y="-18" type="curve" smooth="yes"/>
      <point x="740" y="-18"/>
      <point x="866" y="150"/>
      <point x="882" y="466" type="curve" smooth="yes"/>
      <point x="896" y="749"/>
      <point x="902" y="831"/>
      <point x="902" y="884" type="curve" smooth="yes"/>
      <point x="902" y="1146"/>
      <point x="775" y="1295"/>
      <point x="523" y="1295" type="curve" smooth="yes"/>
      <point x="428" y="1295"/>
      <point x="355" y="1279"/>
    </contour>
  </outline>
</glyph>
<glyph name="emptyset" format="2">
  <advance width="1338"/>
  <unicode hex="2205"/>
  <outline>
    <contour>
      <point x="204" y="-98" type="line"/>
      <point x="247" y="-98" type="line"/>
      <point x="1145" y="1131" type="line"/>
      <point x="1102" y="1131" type="line"/>
    </contour>
    <contour>
      <point x="670" y="-25" type="curve" smooth="yes"/>
      <point x="995" y="-25"/>
      <point x="1211" y="191"/>
      <point x="1211" y="514" type="curve"/>
      <point x="1211" y="542" type="line"/>
      <point x="1211" y="852"/>
      <point x="995" y="1058"/>
      <point x="670" y="1058" type="curve" smooth="yes"/>
      <point x="344" y="1058"/>
      <point x="127" y="852"/>
      <point x="127" y="542" type="curve"/>
      <point x="127" y="514" type="line"/>
      <point x="127" y="191"/>
      <point x="344" y="-25"/>
    </contour>
    <contour>
      <point x="670" y="10" type="curve" smooth="yes"/>
      <point x="367" y="10"/>
      <point x="165" y="212"/>
      <point x="165" y="514" type="curve" smooth="yes"/>
      <point x="165" y="542" type="line" smooth="yes"/>
      <point x="165" y="831"/>
      <point x="367" y="1024"/>
      <point x="670" y="1024" type="curve" smooth="yes"/>
      <point x="972" y="1024"/>
      <point x="1173" y="831"/>
      <point x="1173" y="542" type="curve" smooth="yes"/>
      <point x="1173" y="514" type="line" smooth="yes"/>
      <point x="1173" y="212"/>
      <point x="972" y="10"/>
    </contour>
  </outline>
</glyph>
<glyph name="increment" format="2">
  <advance width="1173"/>
  <unicode hex="2206"/>
  <outline>
    <contour>
      <point x="1060" y="14" type="line"/>
      <point x="1097" y="29" type="line"/>
      <point x="609" y="1278" type="line"/>
      <point x="572" y="1278" type="line"/>
    </contour>
    <contour>
      <point x="76" y="29" type="line"/>
      <point x="76" y="0" type="line"/>
      <point x="671" y="0" type="line"/>
      <point x="671" y="35" type="line"/>
      <point x="96" y="35" type="line"/>
    </contour>
    <contour>
      <point x="113" y="14" type="line"/>
      <point x="602" y="1278" type="line"/>
      <point x="565" y="1278" type="line"/>
      <point x="76" y="29" type="line"/>
    </contour>
    <contour>
      <point x="1097" y="29" type="line"/>
      <point x="1076" y="35" type="line"/>
      <point x="502" y="35" type="line"/>
      <point x="502" y="0" type="line"/>
      <point x="1097" y="0" type="line"/>
    </contour>
  </outline>
</glyph>
<glyph name="product" format="2">
  <advance width="1063"/>
  <unicode hex="220F"/>
  <outline>
    <contour>
      <point x="878" y="-185" type="line"/>
      <point x="878" y="1278" type="line"/>
      <point x="185" y="1278" type="line"/>
      <point x="185" y="-185" type="line"/>
      <point x="224" y="-185" type="line"/>
      <point x="224" y="1262" type="line"/>
      <point x="205" y="1244" type="line"/>
      <point x="853" y="1244" type="line"/>
      <point x="838" y="1259" type="line"/>
      <point x="838" y="-185" type="line"/>
    </contour>
  </outline>
</glyph>
<glyph name="summation" format="2">
  <advance width="868"/>
  <unicode hex="2211"/>
  <outline>
    <contour>
      <point x="76" y="1244" type="line"/>
      <point x="95" y="1244" type="line"/>
      <point x="770" y="1244" type="line"/>
      <point x="770" y="1278" type="line"/>
      <point x="76" y="1278" type="line"/>
    </contour>
    <contour>
      <point x="76" y="-185" type="line"/>
      <point x="770" y="-185" type="line"/>
      <point x="770" y="-151" type="line"/>
      <point x="95" y="-151" type="line"/>
      <point x="76" y="-151" type="line"/>
    </contour>
    <contour>
      <point x="498" y="549" type="line"/>
      <point x="498" y="543" type="line"/>
      <point x="76" y="-151" type="line"/>
      <point x="101" y="-175" type="line"/>
      <point x="532" y="528" type="line"/>
      <point x="532" y="563" type="line"/>
      <point x="101" y="1268" type="line"/>
      <point x="76" y="1244" type="line"/>
    </contour>
  </outline>
</glyph>
<glyph name="radical" format="2">
  <advance width="953"/>
  <unicode hex="221A"/>
  <outline>
    <contour>
      <point x="345" y="-231" type="line"/>
      <point x="385" y="-231" type="line"/>
      <point x="927" y="1335" type="line"/>
      <point x="887" y="1335" type="line"/>
    </contour>
    <contour>
      <point x="310" y="-231" type="line"/>
      <point x="383" y="-231" type="line"/>
      <point x="358" y="-199" type="line"/>
      <point x="335" y="-199" type="line"/>
      <point x="131" y="339" type="line"/>
      <point x="90" y="339" type="line"/>
    </contour>
  </outline>
</glyph>
<glyph name="infinity" format="2">
  <advance width="1495"/>
  <unicode hex="221E"/>
  <outline>
    <contour>
      <point x="118" y="388" type="line" smooth="yes"/>
      <point x="118" y="176"/>
      <point x="220" y="68"/>
      <point x="388" y="68" type="curve" smooth="yes"/>
      <point x="568" y="68"/>
      <point x="665" y="191"/>
      <point x="749" y="428" type="curve"/>
      <point x="753" y="428" type="line"/>
      <point x="753" y="518" type="line"/>
      <point x="749" y="518" type="line"/>
      <point x="665" y="750"/>
      <point x="568" y="880"/>
      <point x="388" y="880" type="curve" smooth="yes"/>
      <point x="222" y="880"/>
      <point x="118" y="775"/>
      <point x="118" y="571" type="curve" smooth="yes"/>
    </contour>
    <contour>
      <point x="155" y="383" type="curve" smooth="yes"/>
      <point x="155" y="576" type="line" smooth="yes"/>
      <point x="155" y="748"/>
      <point x="243" y="846"/>
      <point x="388" y="846" type="curve" smooth="yes"/>
      <point x="561" y="846"/>
      <point x="644" y="707"/>
      <point x="728" y="473" type="curve"/>
      <point x="645" y="237"/>
      <point x="563" y="101"/>
      <point x="388" y="101" type="curve" smooth="yes"/>
      <point x="243" y="101"/>
      <point x="155" y="203"/>
    </contour>
    <contour>
      <point x="1377" y="388" type="curve" smooth="yes"/>
      <point x="1377" y="571" type="line" smooth="yes"/>
      <point x="1377" y="774"/>
      <point x="1273" y="880"/>
      <point x="1106" y="880" type="curve" smooth="yes"/>
      <point x="927" y="880"/>
      <point x="829" y="750"/>
      <point x="746" y="518" type="curve"/>
      <point x="742" y="518" type="line"/>
      <point x="742" y="428" type="line"/>
      <point x="746" y="428" type="line"/>
      <point x="829" y="191"/>
      <point x="927" y="68"/>
      <point x="1106" y="68" type="curve" smooth="yes"/>
      <point x="1274" y="68"/>
      <point x="1377" y="176"/>
    </contour>
    <contour>
      <point x="1339" y="383" type="line" smooth="yes"/>
      <point x="1339" y="203"/>
      <point x="1252" y="101"/>
      <point x="1105" y="101" type="curve" smooth="yes"/>
      <point x="930" y="101"/>
      <point x="850" y="237"/>
      <point x="767" y="473" type="curve"/>
      <point x="851" y="707"/>
      <point x="932" y="846"/>
      <point x="1105" y="846" type="curve" smooth="yes"/>
      <point x="1251" y="846"/>
      <point x="1339" y="748"/>
      <point x="1339" y="576" type="curve" smooth="yes"/>
    </contour>
  </outline>
</glyph>
<glyph name="integral" format="2">
  <advance width="537"/>
  <unicode hex="222B"/>
  <outline>
    <contour>
      <point x="-131" y="-308" type="curve"/>
      <point x="-129" y="-341" type="line"/>
      <point x="-101" y="-346"/>
      <point x="-71" y="-349"/>
      <point x="-39" y="-349" type="curve" smooth="yes"/>
      <point x="138" y="-349"/>
      <point x="231" y="-277"/>
      <point x="246" y="-81" type="curve"/>
      <point x="328" y="1072" type="line"/>
      <point x="340" y="1241"/>
      <point x="413" y="1310"/>
      <point x="579" y="1310" type="curve" smooth="yes"/>
      <point x="609" y="1310"/>
      <point x="638" y="1308"/>
      <point x="668" y="1303" type="curve"/>
      <point x="666" y="1336" type="line"/>
      <point x="638" y="1341"/>
      <point x="608" y="1344"/>
      <point x="576" y="1344" type="curve" smooth="yes"/>
      <point x="400" y="1344"/>
      <point x="306" y="1272"/>
      <point x="292" y="1076" type="curve"/>
      <point x="210" y="-77" type="line"/>
      <point x="198" y="-246"/>
      <point x="125" y="-315"/>
      <point x="-42" y="-315" type="curve" smooth="yes"/>
      <point x="-72" y="-315"/>
      <point x="-101" y="-313"/>
    </contour>
  </outline>
</glyph>
<glyph name="notequal" format="2">
  <advance width="1034"/>
  <unicode hex="2260"/>
  <outline>
    <contour>
      <point x="294" y="152" type="line"/>
      <point x="332" y="152" type="line"/>
      <point x="719" y="1098" type="line"/>
      <point x="681" y="1098" type="line"/>
    </contour>
    <component base="equal" yOffset="1"/>
  </outline>
</glyph>
<glyph name="lessequal" format="2">
  <advance width="1034"/>
  <unicode hex="2264"/>
  <outline>
    <contour>
      <point x="893" y="446" type="line"/>
      <point x="893" y="484" type="line"/>
      <point x="176" y="725" type="line"/>
      <point x="176" y="746" type="line"/>
      <point x="893" y="987" type="line"/>
      <point x="893" y="1025" type="line"/>
      <point x="141" y="770" type="line"/>
      <point x="141" y="701" type="line"/>
    </contour>
    <contour>
      <point x="141" y="203" type="line"/>
      <point x="893" y="203" type="line"/>
      <point x="893" y="237" type="line"/>
      <point x="141" y="237" type="line"/>
    </contour>
  </outline>
</glyph>
<glyph name="greaterequal" format="2">
  <advance width="1034"/>
  <unicode hex="2265"/>
  <outline>
    <contour>
      <point x="141" y="446" type="line"/>
      <point x="893" y="701" type="line"/>
      <point x="893" y="770" type="line"/>
      <point x="141" y="1025" type="line"/>
      <point x="141" y="987" type="line"/>
      <point x="858" y="746" type="line"/>
      <point x="858" y="725" type="line"/>
      <point x="141" y="484" type="line"/>
    </contour>
    <contour>
      <point x="893" y="203" type="line"/>
      <point x="893" y="237" type="line"/>
      <point x="141" y="237" type="line"/>
      <point x="141" y="203" type="line"/>
    </contour>
  </outline>
</glyph>
<glyph name="lozenge" format="2">
  <advance width="962"/>
  <unicode hex="25CA"/>
  <outline>
    <contour>
      <point x="85" y="624" type="line"/>
      <point x="500" y="1278" type="line"/>
      <point x="456" y="1278" type="line"/>
      <point x="60" y="657" type="line"/>
      <point x="60" y="623" type="line"/>
    </contour>
    <contour>
      <point x="85" y="655" type="line"/>
      <point x="60" y="623" type="line"/>
      <point x="458" y="0" type="line"/>
      <point x="500" y="0" type="line"/>
    </contour>
    <contour>
      <point x="878" y="624" type="line"/>
      <point x="902" y="623" type="line"/>
      <point x="902" y="657" type="line"/>
      <point x="505" y="1278" type="line"/>
      <point x="463" y="1278" type="line"/>
    </contour>
    <contour>
      <point x="878" y="655" type="line"/>
      <point x="463" y="0" type="line"/>
      <point x="505" y="0" type="line"/>
      <point x="902" y="623" type="line"/>
    </contour>
  </outline>
</glyph>
<glyph name="leftanglebracketmath" format="2">
  <advance width="621"/>
  <unicode hex="27E8"/>
  <outline>
    <contour>
      <point x="210" y="552" type="line"/>
      <point x="531" y="1335" type="line"/>
      <point x="490" y="1335" type="line"/>
      <point x="175" y="569" type="line"/>
      <point x="175" y="535" type="line"/>
      <point x="490" y="-231" type="line"/>
      <point x="531" y="-231" type="line"/>
    </contour>
  </outline>
</glyph>
<glyph name="rightanglebracketmath" format="2">
  <advance width="621"/>
  <unicode hex="27E9"/>
  <outline>
    <contour>
      <point x="411" y="552" type="line"/>
      <point x="90" y="-231" type="line"/>
      <point x="131" y="-231" type="line"/>
      <point x="446" y="535" type="line"/>
      <point x="446" y="569" type="line"/>
      <point x="131" y="1335" type="line"/>
      <point x="90" y="1335" type="line"/>
    </contour>
  </outline>
</glyph>
<glyph name="__hookabovecombsmall.case" format="2">
  <advance width="502"/>
  <anchor x="220" y="971" name="_top"/>
  <outline>
    <contour>
      <point x="206" y="1093" type="curve"/>
      <point x="200" y="1122" type="line"/>
      <point x="288" y="1146"/>
      <point x="335" y="1178"/>
      <point x="335" y="1238" type="curve" smooth="yes"/>
      <point x="335" y="1292"/>
      <point x="305" y="1318"/>
      <point x="245" y="1318" type="curve" smooth="yes"/>
      <point x="204" y="1318"/>
      <point x="164" y="1305"/>
      <point x="129" y="1290" type="curve"/>
      <point x="134" y="1322" type="line"/>
      <point x="161" y="1335"/>
      <point x="204" y="1349"/>
      <point x="249" y="1349" type="curve" smooth="yes"/>
      <point x="326" y="1349"/>
      <point x="369" y="1310"/>
      <point x="369" y="1239" type="curve" smooth="yes"/>
      <point x="369" y="1165"/>
      <point x="311" y="1119"/>
    </contour>
  </outline>
</glyph>
<glyph name="__hookabovecombsmall" format="2">
  <advance width="502"/>
  <anchor x="220" y="971" name="_top"/>
  <outline>
    <contour>
      <point x="206" y="1097" type="curve"/>
      <point x="200" y="1126" type="line"/>
      <point x="288" y="1152"/>
      <point x="335" y="1185"/>
      <point x="335" y="1250" type="curve" smooth="yes"/>
      <point x="335" y="1310"/>
      <point x="305" y="1338"/>
      <point x="243" y="1338" type="curve" smooth="yes"/>
      <point x="204" y="1338"/>
      <point x="164" y="1325"/>
      <point x="129" y="1310" type="curve"/>
      <point x="134" y="1342" type="line"/>
      <point x="161" y="1355"/>
      <point x="204" y="1369"/>
      <point x="247" y="1369" type="curve" smooth="yes"/>
      <point x="326" y="1369"/>
      <point x="369" y="1329"/>
      <point x="369" y="1251" type="curve" smooth="yes"/>
      <point x="369" y="1171"/>
      <point x="312" y="1126"/>
    </contour>
  </outline>
</glyph>
<glyph name="_acutecombsmall.case" format="2">
  <advance width="472"/>
  <anchor x="121" y="971" name="_top"/>
  <outline>
    <contour>
      <point x="276" y="1308" type="line"/>
      <point x="107" y="1106" type="line"/>
      <point x="107" y="1105" type="line"/>
      <point x="143" y="1105" type="line"/>
      <point x="319" y="1307" type="line"/>
      <point x="319" y="1308" type="line"/>
    </contour>
  </outline>
</glyph>
<glyph name="_acutecombsmall" format="2">
  <advance width="472"/>
  <anchor x="121" y="971" name="_top"/>
  <outline>
    <contour>
      <point x="277" y="1341" type="line"/>
      <point x="109" y="1116" type="line"/>
      <point x="109" y="1115" type="line"/>
      <point x="145" y="1115" type="line"/>
      <point x="321" y="1340" type="line"/>
      <point x="321" y="1341" type="line"/>
    </contour>
  </outline>
</glyph>
<glyph name="_gravecombsmall.case" format="2">
  <advance width="472"/>
  <anchor x="342" y="971" name="_top"/>
  <outline>
    <contour>
      <point x="196" y="1308" type="line"/>
      <point x="153" y="1308" type="line"/>
      <point x="153" y="1307" type="line"/>
      <point x="329" y="1105" type="line"/>
      <point x="365" y="1105" type="line"/>
      <point x="365" y="1106" type="line"/>
    </contour>
  </outline>
</glyph>
<glyph name="_gravecombsmall" format="2">
  <advance width="472"/>
  <anchor x="345" y="971" name="_top"/>
  <outline>
    <contour>
      <point x="195" y="1341" type="line"/>
      <point x="151" y="1341" type="line"/>
      <point x="151" y="1340" type="line"/>
      <point x="327" y="1115" type="line"/>
      <point x="363" y="1115" type="line"/>
      <point x="363" y="1116" type="line"/>
    </contour>
  </outline>
</glyph>
<glyph name="_tildecombsmall.case" format="2">
  <advance width="678"/>
  <anchor x="344" y="971" name="_top"/>
  <outline>
    <contour>
      <point x="469" y="1158" type="curve" smooth="yes"/>
      <point x="549" y="1158"/>
      <point x="571" y="1208"/>
      <point x="571" y="1278" type="curve" smooth="yes"/>
      <point x="571" y="1301" type="line"/>
      <point x="539" y="1301" type="line"/>
      <point x="539" y="1282" type="line"/>
      <point x="539" y="1223"/>
      <point x="522" y="1190"/>
      <point x="471" y="1190" type="curve" smooth="yes"/>
      <point x="387" y="1190"/>
      <point x="314" y="1294"/>
      <point x="218" y="1294" type="curve" smooth="yes"/>
      <point x="138" y="1294"/>
      <point x="116" y="1242"/>
      <point x="116" y="1173" type="curve" smooth="yes"/>
      <point x="116" y="1152" type="line"/>
      <point x="147" y="1152" type="line"/>
      <point x="147" y="1170" type="line"/>
      <point x="147" y="1229"/>
      <point x="165" y="1262"/>
      <point x="216" y="1262" type="curve" smooth="yes"/>
      <point x="300" y="1262"/>
      <point x="370" y="1158"/>
    </contour>
  </outline>
</glyph>
<glyph name="_tildecombsmall" format="2">
  <advance width="678"/>
  <anchor x="344" y="971" name="_top"/>
  <outline>
    <contour>
      <point x="472" y="1173" type="curve" smooth="yes"/>
      <point x="549" y="1173"/>
      <point x="571" y="1223"/>
      <point x="571" y="1292" type="curve" smooth="yes"/>
      <point x="571" y="1324" type="line"/>
      <point x="539" y="1324" type="line"/>
      <point x="539" y="1296" type="line"/>
      <point x="539" y="1237"/>
      <point x="522" y="1205"/>
      <point x="474" y="1205" type="curve" smooth="yes"/>
      <point x="390" y="1205"/>
      <point x="311" y="1308"/>
      <point x="215" y="1308" type="curve" smooth="yes"/>
      <point x="138" y="1308"/>
      <point x="116" y="1256"/>
      <point x="116" y="1187" type="curve" smooth="yes"/>
      <point x="116" y="1158" type="line"/>
      <point x="147" y="1158" type="line"/>
      <point x="147" y="1184" type="line"/>
      <point x="147" y="1243"/>
      <point x="165" y="1276"/>
      <point x="213" y="1276" type="curve" smooth="yes"/>
      <point x="297" y="1276"/>
      <point x="373" y="1173"/>
    </contour>
  </outline>
</glyph>
<glyph name="brevecomb.case" format="2">
  <anchor x="324" y="1278" name="_top"/>
  <anchor x="324" y="1585" name="top"/>
  <outline>
    <contour>
      <point x="323" y="1410" type="curve" smooth="yes"/>
      <point x="470" y="1410"/>
      <point x="538" y="1490"/>
      <point x="541" y="1647" type="curve"/>
      <point x="508" y="1647" type="line"/>
      <point x="506" y="1506"/>
      <point x="444" y="1441"/>
      <point x="323" y="1441" type="curve" smooth="yes"/>
      <point x="203" y="1441"/>
      <point x="141" y="1506"/>
      <point x="139" y="1647" type="curve"/>
      <point x="106" y="1647" type="line"/>
      <point x="109" y="1490"/>
      <point x="177" y="1410"/>
    </contour>
  </outline>
</glyph>
<glyph name="brevecomb.narrow" format="2">
  <anchor x="318" y="971" name="_top"/>
  <anchor x="319" y="1293" name="top"/>
  <outline>
    <contour>
      <point x="318" y="1105" type="curve" smooth="yes"/>
      <point x="450" y="1105"/>
      <point x="496" y="1192"/>
      <point x="496" y="1360" type="curve"/>
      <point x="463" y="1360" type="line"/>
      <point x="463" y="1209"/>
      <point x="425" y="1136"/>
      <point x="318" y="1136" type="curve" smooth="yes"/>
      <point x="211" y="1136"/>
      <point x="174" y="1209"/>
      <point x="174" y="1360" type="curve"/>
      <point x="141" y="1360" type="line"/>
      <point x="141" y="1192"/>
      <point x="186" y="1105"/>
    </contour>
  </outline>
</glyph>
<glyph name="brevecomb_tildecomb.case" format="2">
  <anchor x="324" y="1278" name="_top"/>
  <anchor x="324" y="1585" name="top"/>
  <outline>
    <contour>
      <point x="447" y="1769" type="curve" smooth="yes"/>
      <point x="525" y="1769"/>
      <point x="547" y="1818"/>
      <point x="547" y="1886" type="curve" smooth="yes"/>
      <point x="547" y="1909" type="line"/>
      <point x="515" y="1909" type="line"/>
      <point x="515" y="1890" type="line"/>
      <point x="515" y="1833"/>
      <point x="499" y="1800"/>
      <point x="449" y="1800" type="curve" smooth="yes"/>
      <point x="366" y="1800"/>
      <point x="295" y="1902"/>
      <point x="201" y="1902" type="curve" smooth="yes"/>
      <point x="122" y="1902"/>
      <point x="101" y="1851"/>
      <point x="101" y="1784" type="curve" smooth="yes"/>
      <point x="101" y="1763" type="line"/>
      <point x="131" y="1763" type="line"/>
      <point x="131" y="1781" type="line"/>
      <point x="131" y="1838"/>
      <point x="149" y="1871"/>
      <point x="199" y="1871" type="curve" smooth="yes"/>
      <point x="281" y="1871"/>
      <point x="350" y="1769"/>
    </contour>
    <component base="brevecomb.case"/>
  </outline>
</glyph>
<glyph name="brevecomb_tildecomb" format="2">
  <anchor x="318" y="971" name="_top"/>
  <anchor x="319" y="1295" name="top"/>
  <outline>
    <contour>
      <point x="445" y="1493" type="curve" smooth="yes"/>
      <point x="520" y="1493"/>
      <point x="542" y="1542"/>
      <point x="542" y="1609" type="curve" smooth="yes"/>
      <point x="542" y="1641" type="line"/>
      <point x="510" y="1641" type="line"/>
      <point x="510" y="1613" type="line"/>
      <point x="510" y="1555"/>
      <point x="494" y="1524"/>
      <point x="447" y="1524" type="curve" smooth="yes"/>
      <point x="364" y="1524"/>
      <point x="287" y="1625"/>
      <point x="193" y="1625" type="curve" smooth="yes"/>
      <point x="117" y="1625"/>
      <point x="96" y="1574"/>
      <point x="96" y="1506" type="curve" smooth="yes"/>
      <point x="96" y="1478" type="line"/>
      <point x="126" y="1478" type="line"/>
      <point x="126" y="1503" type="line"/>
      <point x="126" y="1561"/>
      <point x="144" y="1593"/>
      <point x="191" y="1593" type="curve" smooth="yes"/>
      <point x="273" y="1593"/>
      <point x="348" y="1493"/>
    </contour>
    <component base="brevecomb"/>
  </outline>
</glyph>
<glyph name="breveinvertedcomb.case" format="2">
  <anchor x="324" y="1278" name="_top"/>
  <anchor x="324" y="1585" name="top"/>
  <outline>
    <contour>
      <point x="323" y="1655" type="curve" smooth="yes"/>
      <point x="177" y="1655"/>
      <point x="109" y="1575"/>
      <point x="106" y="1418" type="curve"/>
      <point x="139" y="1418" type="line"/>
      <point x="141" y="1559"/>
      <point x="203" y="1624"/>
      <point x="323" y="1624" type="curve" smooth="yes"/>
      <point x="444" y="1624"/>
      <point x="506" y="1559"/>
      <point x="508" y="1418" type="curve"/>
      <point x="541" y="1418" type="line"/>
      <point x="538" y="1575"/>
      <point x="470" y="1655"/>
    </contour>
  </outline>
</glyph>
<glyph name="breveinvertedcomb.narrow" format="2">
  <anchor x="318" y="971" name="_top"/>
  <anchor x="319" y="1295" name="top"/>
  <outline>
    <contour>
      <point x="318" y="1366" type="curve" smooth="yes"/>
      <point x="186" y="1366"/>
      <point x="141" y="1279"/>
      <point x="141" y="1111" type="curve"/>
      <point x="174" y="1111" type="line"/>
      <point x="174" y="1262"/>
      <point x="211" y="1335"/>
      <point x="318" y="1335" type="curve" smooth="yes"/>
      <point x="425" y="1335"/>
      <point x="463" y="1262"/>
      <point x="463" y="1111" type="curve"/>
      <point x="496" y="1111" type="line"/>
      <point x="496" y="1279"/>
      <point x="450" y="1366"/>
    </contour>
  </outline>
</glyph>
<glyph name="caroncomb.alt" format="2">
  <anchor x="160" y="1278" name="_topright"/>
  <outline>
    <contour>
      <point x="195" y="1278" type="curve"/>
      <point x="161" y="1278" type="line"/>
      <point x="166" y="1244"/>
      <point x="169" y="1210"/>
      <point x="169" y="1174" type="curve" smooth="yes"/>
      <point x="169" y="1053"/>
      <point x="142" y="958"/>
      <point x="76" y="869" type="curve"/>
      <point x="98" y="851" type="line"/>
      <point x="175" y="947"/>
      <point x="203" y="1049"/>
      <point x="203" y="1175" type="curve" smooth="yes"/>
      <point x="203" y="1219"/>
      <point x="197" y="1256"/>
    </contour>
  </outline>
</glyph>
<glyph name="caroncomb.case" format="2">
  <anchor x="369" y="1278" name="_top"/>
  <anchor x="369" y="1585" name="top"/>
  <outline>
    <contour>
      <point x="345" y="1418" type="line"/>
      <point x="393" y="1418" type="line"/>
      <point x="633" y="1646" type="line"/>
      <point x="633" y="1647" type="line"/>
      <point x="591" y="1647" type="line"/>
      <point x="372" y="1449" type="line"/>
      <point x="366" y="1449" type="line"/>
      <point x="147" y="1647" type="line"/>
      <point x="105" y="1647" type="line"/>
      <point x="105" y="1646" type="line"/>
    </contour>
  </outline>
</glyph>
<glyph name="circumflexcomb_tildecomb.case" format="2">
  <anchor x="369" y="1278" name="_top"/>
  <anchor x="371" y="1585" name="top"/>
  <outline>
    <contour>
      <point x="494" y="1769" type="curve" smooth="yes"/>
      <point x="572" y="1769"/>
      <point x="594" y="1818"/>
      <point x="594" y="1886" type="curve" smooth="yes"/>
      <point x="594" y="1909" type="line"/>
      <point x="562" y="1909" type="line"/>
      <point x="562" y="1890" type="line"/>
      <point x="562" y="1833"/>
      <point x="546" y="1800"/>
      <point x="496" y="1800" type="curve" smooth="yes"/>
      <point x="413" y="1800"/>
      <point x="342" y="1902"/>
      <point x="248" y="1902" type="curve" smooth="yes"/>
      <point x="169" y="1902"/>
      <point x="148" y="1851"/>
      <point x="148" y="1784" type="curve" smooth="yes"/>
      <point x="148" y="1763" type="line"/>
      <point x="178" y="1763" type="line"/>
      <point x="178" y="1781" type="line"/>
      <point x="178" y="1838"/>
      <point x="196" y="1871"/>
      <point x="246" y="1871" type="curve" smooth="yes"/>
      <point x="328" y="1871"/>
      <point x="397" y="1769"/>
    </contour>
    <component base="circumflexcomb.case"/>
  </outline>
</glyph>
<glyph name="circumflexcomb_tildecomb" format="2">
  <anchor x="334" y="971" name="_top"/>
  <anchor x="334" y="1295" name="top"/>
  <outline>
    <contour>
      <point x="460" y="1493" type="curve" smooth="yes"/>
      <point x="535" y="1493"/>
      <point x="557" y="1542"/>
      <point x="557" y="1609" type="curve" smooth="yes"/>
      <point x="557" y="1641" type="line"/>
      <point x="525" y="1641" type="line"/>
      <point x="525" y="1613" type="line"/>
      <point x="525" y="1555"/>
      <point x="509" y="1524"/>
      <point x="462" y="1524" type="curve" smooth="yes"/>
      <point x="379" y="1524"/>
      <point x="302" y="1625"/>
      <point x="208" y="1625" type="curve" smooth="yes"/>
      <point x="132" y="1625"/>
      <point x="111" y="1574"/>
      <point x="111" y="1506" type="curve" smooth="yes"/>
      <point x="111" y="1478" type="line"/>
      <point x="141" y="1478" type="line"/>
      <point x="141" y="1503" type="line"/>
      <point x="141" y="1561"/>
      <point x="159" y="1593"/>
      <point x="206" y="1593" type="curve" smooth="yes"/>
      <point x="288" y="1593"/>
      <point x="363" y="1493"/>
    </contour>
    <component base="circumflexcomb"/>
  </outline>
</glyph>
<glyph name="commaturnedabovecomb.case" format="2">
  <anchor x="162" y="1278" name="_top"/>
  <anchor x="158" y="1657" name="top"/>
  <outline>
    <contour>
      <point x="127" y="1428" type="curve"/>
      <point x="163" y="1428" type="line"/>
      <point x="161" y="1448"/>
      <point x="159" y="1469"/>
      <point x="159" y="1491" type="curve" smooth="yes"/>
      <point x="159" y="1578"/>
      <point x="179" y="1649"/>
      <point x="227" y="1716" type="curve"/>
      <point x="207" y="1738" type="line"/>
      <point x="145" y="1661"/>
      <point x="124" y="1585"/>
      <point x="124" y="1490" type="curve" smooth="yes"/>
      <point x="124" y="1464"/>
      <point x="126" y="1442"/>
    </contour>
  </outline>
</glyph>
<glyph name="dblgravecomb.case" format="2">
  <anchor x="446" y="1278" name="_top"/>
  <anchor x="306" y="1585" name="top"/>
  <outline>
    <contour>
      <point x="150" y="1647" type="line"/>
      <point x="104" y="1647" type="line"/>
      <point x="104" y="1647" type="line"/>
      <point x="301" y="1418" type="line"/>
      <point x="339" y="1418" type="line"/>
      <point x="339" y="1419" type="line"/>
    </contour>
    <contour>
      <point x="404" y="1647" type="line"/>
      <point x="358" y="1647" type="line"/>
      <point x="358" y="1647" type="line"/>
      <point x="555" y="1418" type="line"/>
      <point x="593" y="1418" type="line"/>
      <point x="593" y="1419" type="line"/>
    </contour>
  </outline>
</glyph>
<glyph name="dblgravecomb.narrow" format="2">
  <anchor x="427" y="971" name="_top"/>
  <anchor x="316" y="1295" name="top"/>
  <outline>
    <contour>
      <point x="218" y="1360" type="line"/>
      <point x="175" y="1360" type="line"/>
      <point x="175" y="1360" type="line"/>
      <point x="303" y="1111" type="line"/>
      <point x="338" y="1111" type="line"/>
      <point x="338" y="1111" type="line"/>
    </contour>
    <contour>
      <point x="434" y="1360" type="line"/>
      <point x="390" y="1360" type="line"/>
      <point x="390" y="1360" type="line"/>
      <point x="518" y="1111" type="line"/>
      <point x="553" y="1111" type="line"/>
      <point x="553" y="1111" type="line"/>
    </contour>
  </outline>
</glyph>
<glyph name="dotaccentcomb.case" format="2">
  <anchor x="150" y="1278" name="_top"/>
  <anchor x="150" y="1570" name="top"/>
  <outline>
    <contour>
      <point x="149" y="1473" type="curve" smooth="yes"/>
      <point x="178" y="1473"/>
      <point x="193" y="1491"/>
      <point x="193" y="1528" type="curve" smooth="yes"/>
      <point x="193" y="1532" type="line" smooth="yes"/>
      <point x="193" y="1567"/>
      <point x="178" y="1585"/>
      <point x="149" y="1585" type="curve" smooth="yes"/>
      <point x="121" y="1585"/>
      <point x="106" y="1567"/>
      <point x="106" y="1532" type="curve" smooth="yes"/>
      <point x="106" y="1528" type="line" smooth="yes"/>
      <point x="106" y="1491"/>
      <point x="121" y="1473"/>
    </contour>
  </outline>
</glyph>
<glyph name="horncomb.case" format="2">
  <anchor x="274" y="1278" name="_topright"/>
  <anchor x="355" y="1534" name="topright"/>
  <outline>
    <contour>
      <point x="116" y="1247" type="line"/>
      <point x="268" y="1267"/>
      <point x="338" y="1323"/>
      <point x="338" y="1423" type="curve" smooth="yes"/>
      <point x="338" y="1469"/>
      <point x="326" y="1502"/>
      <point x="311" y="1537" type="curve"/>
      <point x="274" y="1537" type="line"/>
      <point x="290" y="1501"/>
      <point x="302" y="1464"/>
      <point x="302" y="1422" type="curve" smooth="yes"/>
      <point x="302" y="1330"/>
      <point x="230" y="1292"/>
      <point x="105" y="1272" type="curve"/>
    </contour>
  </outline>
</glyph>
<glyph name="horncomb.case_O" format="2">
  <anchor x="208" y="1278" name="_topright"/>
  <anchor x="358" y="1534" name="topright"/>
  <outline>
    <contour>
      <point x="99" y="1229" type="line"/>
      <point x="264" y="1251"/>
      <point x="341" y="1314"/>
      <point x="341" y="1424" type="curve" smooth="yes"/>
      <point x="341" y="1470"/>
      <point x="328" y="1503"/>
      <point x="313" y="1537" type="curve"/>
      <point x="277" y="1537" type="line"/>
      <point x="292" y="1502"/>
      <point x="305" y="1465"/>
      <point x="305" y="1423" type="curve" smooth="yes"/>
      <point x="305" y="1320"/>
      <point x="225" y="1277"/>
      <point x="89" y="1254" type="curve"/>
    </contour>
  </outline>
</glyph>
<glyph name="horncomb_o" format="2">
  <anchor x="214" y="971" name="_topright"/>
  <anchor x="352" y="1231" name="topright"/>
  <outline>
    <contour>
      <point x="80" y="934" type="line"/>
      <point x="258" y="944"/>
      <point x="338" y="1019"/>
      <point x="338" y="1121" type="curve" smooth="yes"/>
      <point x="338" y="1169"/>
      <point x="325" y="1203"/>
      <point x="310" y="1239" type="curve"/>
      <point x="274" y="1239" type="line"/>
      <point x="289" y="1202"/>
      <point x="302" y="1164"/>
      <point x="302" y="1120" type="curve" smooth="yes"/>
      <point x="302" y="1024"/>
      <point x="217" y="970"/>
      <point x="69" y="959" type="curve"/>
    </contour>
  </outline>
</glyph>
<glyph name="hungarumlautcomb.case" format="2">
  <anchor x="252" y="1278" name="_top"/>
  <anchor x="398" y="1585" name="top"/>
  <outline>
    <contour>
      <point x="548" y="1647" type="line"/>
      <point x="359" y="1419" type="line"/>
      <point x="359" y="1418" type="line"/>
      <point x="397" y="1418" type="line"/>
      <point x="594" y="1647" type="line"/>
      <point x="594" y="1647" type="line"/>
    </contour>
    <contour>
      <point x="294" y="1647" type="line"/>
      <point x="105" y="1419" type="line"/>
      <point x="105" y="1418" type="line"/>
      <point x="143" y="1418" type="line"/>
      <point x="340" y="1647" type="line"/>
      <point x="340" y="1647" type="line"/>
    </contour>
  </outline>
</glyph>
<glyph name="hungarumlautcomb.narrow" format="2">
  <anchor x="253" y="971" name="_top"/>
  <anchor x="357" y="1295" name="top"/>
  <outline>
    <contour>
      <point x="460" y="1360" type="line"/>
      <point x="340" y="1111" type="line"/>
      <point x="340" y="1111" type="line"/>
      <point x="375" y="1111" type="line"/>
      <point x="503" y="1360" type="line"/>
      <point x="503" y="1360" type="line"/>
    </contour>
    <contour>
      <point x="244" y="1360" type="line"/>
      <point x="125" y="1111" type="line"/>
      <point x="125" y="1111" type="line"/>
      <point x="160" y="1111" type="line"/>
      <point x="288" y="1360" type="line"/>
      <point x="288" y="1360" type="line"/>
    </contour>
  </outline>
</glyph>
<glyph name="ogonekcomb.case" format="2">
  <anchor x="324" y="0" name="_ogonek"/>
  <outline>
    <contour>
      <point x="239" y="-365" type="curve" smooth="yes"/>
      <point x="271" y="-365"/>
      <point x="310" y="-357"/>
      <point x="330" y="-345" type="curve"/>
      <point x="337" y="-311" type="line"/>
      <point x="305" y="-326"/>
      <point x="276" y="-331"/>
      <point x="245" y="-331" type="curve" smooth="yes"/>
      <point x="175" y="-331"/>
      <point x="129" y="-297"/>
      <point x="129" y="-222" type="curve" smooth="yes"/>
      <point x="129" y="-220" type="line" smooth="yes"/>
      <point x="129" y="-134"/>
      <point x="187" y="-63"/>
      <point x="272" y="0" type="curve"/>
      <point x="272" y="4" type="line"/>
      <point x="237" y="6" type="line"/>
      <point x="237" y="6" type="line"/>
      <point x="155" y="-56"/>
      <point x="93" y="-130"/>
      <point x="93" y="-224" type="curve" smooth="yes"/>
      <point x="93" y="-225" type="line" smooth="yes"/>
      <point x="93" y="-314"/>
      <point x="146" y="-365"/>
    </contour>
  </outline>
</glyph>
<glyph name="periodcentered.loclCAT.case" format="2">
  <outline>
    <contour>
      <point x="-271" y="635" type="curve" smooth="yes"/>
      <point x="-242" y="635"/>
      <point x="-227" y="653"/>
      <point x="-227" y="690" type="curve" smooth="yes"/>
      <point x="-227" y="696" type="line" smooth="yes"/>
      <point x="-227" y="731"/>
      <point x="-242" y="749"/>
      <point x="-271" y="749" type="curve" smooth="yes"/>
      <point x="-300" y="749"/>
      <point x="-314" y="731"/>
      <point x="-314" y="696" type="curve" smooth="yes"/>
      <point x="-314" y="690" type="line" smooth="yes"/>
      <point x="-314" y="653"/>
      <point x="-300" y="635"/>
    </contour>
  </outline>
</glyph>
<glyph name="periodcentered.loclCAT" format="2">
  <advance width="37"/>
  <outline>
    <contour>
      <point x="18" y="635" type="curve" smooth="yes"/>
      <point x="47" y="635"/>
      <point x="62" y="653"/>
      <point x="62" y="690" type="curve" smooth="yes"/>
      <point x="62" y="696" type="line" smooth="yes"/>
      <point x="62" y="731"/>
      <point x="47" y="749"/>
      <point x="18" y="749" type="curve" smooth="yes"/>
      <point x="-11" y="749"/>
      <point x="-25" y="731"/>
      <point x="-25" y="696" type="curve" smooth="yes"/>
      <point x="-25" y="690" type="line" smooth="yes"/>
      <point x="-25" y="653"/>
      <point x="-11" y="635"/>
    </contour>
  </outline>
</glyph>
